<svg width="131" height="35" viewBox="0 0 131 35" fill="none" xmlns="http://www.w3.org/2000/svg">
<path d="M10.6615 20.942V25.6264C10.6615 27.9687 9.61353 28.8133 7.94796 28.8133C6.28239 28.8133 5.23532 27.9687 5.23532 25.6264V7.91737C5.23532 5.57513 6.28332 4.68447 7.94889 4.68447C9.61446 4.68447 10.6615 5.57513 10.6615 7.91737V11.4312H15.6115V8.24526C15.6115 2.99803 12.9456 0 7.80573 0C2.66491 0 0 2.99803 0 8.24526V25.2986C0 30.5458 2.66491 33.5447 7.80573 33.5447C12.9456 33.5447 15.6115 30.5458 15.6115 25.2986V20.942H10.6615V20.942ZM30.4135 0.374868L35.7443 33.1699H30.4612L29.5564 27.2199H23.1318L22.227 33.1699H17.4202L22.751 0.374868H30.4135ZM26.273 6.18395L23.798 22.7693H28.8425L26.3684 6.18303H26.2739L26.273 6.18395ZM54.4492 33.1699H49.1185C48.8331 32.3262 48.6422 31.8104 48.6422 29.1403V23.987C48.6422 20.942 47.5951 19.8174 45.2156 19.8174H43.4069V33.1699H38.1715V0.374868H46.0727C51.498 0.374868 53.8298 2.85803 53.8298 7.91829V10.4945C53.8298 13.8674 52.735 16.0226 50.4032 17.1003C53.0213 18.2709 53.8775 20.7071 53.8775 24.1279V29.1872C53.8775 30.7807 53.9252 31.9513 54.4483 33.1699H54.4492ZM45.9295 5.05934H43.4069V15.1329H45.4533C47.4052 15.1329 48.5944 14.2901 48.5944 11.6661V8.43316C48.5944 6.09092 47.786 5.06026 45.9295 5.06026V5.05934ZM70.405 0.374868L75.7358 33.1699H70.4527L69.5488 27.2199H63.1233L62.2194 33.1699H57.4117L62.7425 0.374868H70.4059H70.405ZM66.2645 6.18395L63.7895 22.7693H68.8349L66.3599 6.18303H66.2645V6.18395ZM80.579 0.374868H75.296L80.4359 33.1699H88.2416L93.3815 0.374868H88.5747L84.6241 27.125H84.5287L80.579 0.374868ZM105.935 0.374868L111.266 33.1699H105.983L105.079 27.2199H98.6533L97.7485 33.1699H92.9417L98.2725 0.374868H105.935ZM101.794 6.18395L99.3195 22.7693H104.365L101.89 6.18303H101.794V6.18395ZM125.622 33.1699H131V0.374868H126.335V20.0043H126.24L120.957 0.374868H114.389V33.1699H119.101V9.41592H119.196L125.622 33.1699V33.1699Z" fill="#9C9C9C"/>
</svg>
