<svg width="32" height="31" viewBox="0 0 32 31" fill="none" xmlns="http://www.w3.org/2000/svg">
<path d="M22.6665 21.4413C20.8665 21.4413 19.7332 21.9668 18.7332 22.4423C17.8665 22.8552 17.1598 23.193 15.9998 23.193C14.7998 23.193 14.1332 22.8802 13.2665 22.4423C12.2665 21.9668 11.1732 21.4413 9.33317 21.4413C7.49317 21.4413 6.39984 21.9668 5.39984 22.4423C4.8265 22.7175 4.31984 22.9552 3.7065 23.0929C3.1065 23.218 2.6665 23.6684 2.6665 24.2315V24.3566C2.6665 25.1073 3.41317 25.6453 4.1865 25.4952C5.17317 25.3075 5.91984 24.9572 6.59984 24.6318C7.4665 24.219 8.15984 23.8811 9.33317 23.8811C10.5065 23.8811 11.1998 24.1939 12.0665 24.6318C13.0665 25.1073 14.1598 25.6328 15.9998 25.6328C17.8398 25.6328 18.9332 25.1073 19.9332 24.6318C20.7998 24.219 21.5065 23.8811 22.6665 23.8811C23.8665 23.8811 24.5332 24.1939 25.3998 24.6318C26.0932 24.9572 26.8398 25.32 27.8398 25.5077C28.02 25.5407 28.2056 25.5361 28.3837 25.4944C28.5617 25.4527 28.7279 25.3747 28.8703 25.2661C29.0127 25.1575 29.128 25.0209 29.208 24.8659C29.288 24.7109 29.3307 24.5413 29.3332 24.3691V24.2565C29.3332 23.6809 28.8798 23.2305 28.2798 23.1054C27.6665 22.9803 27.1732 22.7425 26.5998 22.4548C25.5998 21.9668 24.4665 21.4413 22.6665 21.4413ZM22.6665 15.8735C20.8665 15.8735 19.7332 16.4115 18.7332 16.8745C17.8665 17.2748 17.1598 17.6252 15.9998 17.6252C14.7998 17.6252 14.1332 17.3124 13.2665 16.8745C12.2665 16.399 11.1732 15.8735 9.33317 15.8735C7.49317 15.8735 6.39984 16.4115 5.39984 16.8745C4.8265 17.1372 4.31984 17.3874 3.69317 17.5251C3.1065 17.6502 2.6665 18.1006 2.6665 18.6637V18.7888C2.66658 18.9617 2.70773 19.1325 2.78697 19.2886C2.86621 19.4447 2.98154 19.5823 3.12457 19.6914C3.2676 19.8004 3.43474 19.8782 3.61382 19.919C3.7929 19.9599 3.97943 19.9627 4.15984 19.9274C5.15984 19.7397 5.9065 19.3768 6.59984 19.064C7.4665 18.6261 8.13317 18.3133 9.33317 18.3133C10.5332 18.3133 11.1998 18.6261 12.0665 19.064C13.0665 19.5395 14.1598 20.065 15.9998 20.065C17.8398 20.065 18.9332 19.527 19.9332 19.064C20.7998 18.6261 21.4665 18.3133 22.6665 18.3133C23.8665 18.3133 24.5332 18.6261 25.3998 19.064C26.0932 19.3894 26.8398 19.7522 27.8398 19.9399C28.0211 19.9731 28.2079 19.9683 28.3869 19.9258C28.5659 19.8834 28.7327 19.8043 28.8754 19.6943C29.0181 19.5844 29.1331 19.4462 29.2122 19.2896C29.2914 19.1331 29.3327 18.962 29.3332 18.7888V18.6762C29.3332 18.1006 28.8798 17.6502 28.2798 17.5251C27.6665 17.4 27.1732 17.1622 26.5998 16.8745C25.5998 16.399 24.4665 15.8735 22.6665 15.8735ZM26.5998 5.76389C25.5998 5.28844 24.4932 4.76294 22.6665 4.76294C20.8398 4.76294 19.7332 5.28844 18.7332 5.76389C17.8665 6.16427 17.1598 6.51461 15.9998 6.51461C14.7998 6.51461 14.1332 6.20181 13.2665 5.76389C12.2665 5.30095 11.1732 4.76294 9.33317 4.76294C7.49317 4.76294 6.39984 5.28844 5.39984 5.76389C4.8265 6.03915 4.31984 6.27688 3.7065 6.41451C3.1065 6.53963 2.6665 6.99006 2.6665 7.55309V7.64068C2.6665 8.39139 3.3865 8.94192 4.15984 8.79177C5.15984 8.60409 5.9065 8.24125 6.59984 7.92845C7.4665 7.51556 8.15984 7.17774 9.33317 7.17774C10.5065 7.17774 11.1998 7.49053 12.0665 7.92845C13.0665 8.4039 14.1598 8.9294 15.9998 8.9294C17.8398 8.9294 18.9332 8.39139 19.9332 7.92845C20.7998 7.52807 21.5065 7.17774 22.6665 7.17774C23.8665 7.17774 24.5332 7.49053 25.3998 7.92845C26.0932 8.25376 26.8398 8.61661 27.8398 8.80428C28.0211 8.83746 28.2079 8.83266 28.3869 8.79021C28.5659 8.74777 28.7327 8.66873 28.8754 8.55875C29.0181 8.44877 29.1331 8.31057 29.2122 8.15402C29.2914 7.99748 29.3327 7.82645 29.3332 7.65319V7.54058C29.3332 6.96503 28.8798 6.51461 28.2798 6.38949C27.6665 6.26437 27.1732 6.03915 26.5998 5.76389ZM22.6665 10.3057C20.8665 10.3057 19.7332 10.8437 18.7332 11.3067C17.8665 11.7446 17.1998 12.0574 15.9998 12.0574C14.7998 12.0574 14.1332 11.7446 13.2665 11.3067C12.2665 10.8312 11.1732 10.3057 9.33317 10.3057C7.49317 10.3057 6.39984 10.8437 5.39984 11.3067C4.8265 11.5944 4.33317 11.8322 3.71984 11.9573C3.11984 12.0824 2.6665 12.5328 2.6665 13.1084V13.221C2.66658 13.3939 2.70773 13.5647 2.78697 13.7208C2.86621 13.8769 2.98154 14.0145 3.12457 14.1236C3.2676 14.2326 3.43474 14.3104 3.61382 14.3512C3.7929 14.3921 3.97943 14.3949 4.15984 14.3596C5.15984 14.1719 5.9065 13.809 6.59984 13.4962C7.4665 13.0959 8.17317 12.7455 9.33317 12.7455C10.4932 12.7455 11.1998 13.0583 12.0665 13.4962C13.0665 13.9717 14.1598 14.4972 15.9998 14.4972C17.8398 14.4972 18.9332 13.9592 19.9332 13.4962C20.7998 13.0959 21.5065 12.7455 22.6665 12.7455C23.8665 12.7455 24.5332 13.0583 25.3998 13.4962C26.0932 13.8216 26.8398 14.1844 27.8398 14.3721C28.02 14.4051 28.2056 14.4005 28.3837 14.3588C28.5617 14.3171 28.7279 14.2392 28.8703 14.1305C29.0127 14.0219 29.128 13.8853 29.208 13.7303C29.288 13.5753 29.3307 13.4057 29.3332 13.2335V13.1209C29.3332 12.5453 28.8798 12.0949 28.2798 11.9698C27.6665 11.8447 27.1732 11.607 26.5998 11.3192C25.5998 10.8312 24.4665 10.3057 22.6665 10.3057Z" fill="url(#paint0_linear_58_235)"/>
<defs>
<linearGradient id="paint0_linear_58_235" x1="15.9998" y1="4.76294" x2="15.9998" y2="25.6328" gradientUnits="userSpaceOnUse">
<stop stop-color="#FFBF00"/>
<stop offset="1" stop-color="#F2A60C"/>
</linearGradient>
</defs>
</svg>
