<svg width="132" height="35" viewBox="0 0 132 35" fill="none" xmlns="http://www.w3.org/2000/svg">
<path fill-rule="evenodd" clip-rule="evenodd" d="M19.9946 15.1218H22.3541C24.7926 15.1218 26.11 18.0762 24.5216 19.9904L22.2116 22.7725C22.4618 24.4225 23.305 25.9143 24.5729 26.95C25.8419 27.9863 27.4421 28.4906 29.0548 28.3626C30.6675 28.2345 32.1743 27.4835 33.2753 26.259C34.3754 25.035 34.9879 23.4271 34.9904 21.7566C34.9902 21.466 35.0455 21.1782 35.153 20.9097C35.2606 20.6411 35.4184 20.3972 35.6173 20.1918C35.8162 19.9864 36.0524 19.8236 36.3123 19.7126C36.5722 19.6017 36.8508 19.5448 37.132 19.5453C37.6997 19.5455 38.244 19.7785 38.6457 20.1931C39.0474 20.6076 39.2734 21.1699 39.2744 21.7566C39.2742 24.0773 38.5669 26.339 37.2527 28.2208C36.2687 29.6269 34.979 30.7745 33.4874 31.5713C31.9957 32.3681 30.3439 32.7918 28.6648 32.8082C26.9858 32.8246 25.3265 32.4333 23.8205 31.6658C22.3146 30.8984 21.0041 29.7761 19.9946 28.3895C18.985 29.7761 17.6745 30.8984 16.1686 31.6658C14.6626 32.4333 13.0033 32.8246 11.3243 32.8082C9.64521 32.7918 7.99336 32.3681 6.50172 31.5713C5.01009 30.7745 3.72037 29.6269 2.73642 28.2208C1.42194 26.3391 0.71428 24.0774 0.713868 21.7566C0.713639 21.4659 0.768916 21.178 0.876532 20.9094C0.984149 20.6409 1.14199 20.3969 1.34101 20.1915C1.54003 19.9861 1.77631 19.8232 2.03633 19.7124C2.29635 19.6015 2.57498 19.5447 2.85626 19.5453C3.42394 19.5455 3.96834 19.7785 4.36999 20.1931C4.77164 20.6076 4.99774 21.1699 4.99866 21.7566C4.99625 23.4297 5.60614 25.0419 6.70597 26.2698C7.52718 27.1864 8.58179 27.8453 9.74883 28.1708C10.9159 28.4962 12.148 28.4752 13.304 28.1099C14.46 27.7447 15.4929 27.0502 16.2843 26.1059C17.0757 25.1617 17.5935 24.0061 17.7783 22.7716L15.4666 19.9895C13.8791 18.0762 15.1957 15.1227 17.6377 15.1227H19.9946V15.1218Z" fill="#9C9C9C"/>
<path d="M29.9908 9.22574C30.5532 9.22621 31.1102 9.11218 31.6299 8.89016C32.1496 8.66814 32.6219 8.34248 33.0198 7.93178C33.4177 7.52109 33.7334 7.0334 33.9489 6.49659C34.1644 5.95977 34.2754 5.38435 34.2756 4.80318C34.2754 4.22201 34.1644 3.64659 33.9489 3.10977C33.7334 2.57296 33.4177 2.08527 33.0198 1.67458C32.6219 1.26388 32.1496 0.93822 31.6299 0.716198C31.1102 0.494177 30.5532 0.380145 29.9908 0.380617C29.4285 0.380263 28.8717 0.494382 28.3521 0.716456C27.8324 0.93853 27.3602 1.26421 26.9624 1.67489C26.5646 2.08558 26.249 2.57322 26.0336 3.10998C25.8182 3.64674 25.7072 4.22209 25.7069 4.80318C25.7072 5.38427 25.8182 5.95962 26.0336 6.49638C26.249 7.03314 26.5646 7.52078 26.9624 7.93147C27.3602 8.34215 27.8324 8.66783 28.3521 8.8899C28.8717 9.11198 29.4285 9.2261 29.9908 9.22574V9.22574ZM9.99719 9.22574C10.5595 9.2261 11.1164 9.11198 11.636 8.8899C12.1556 8.66783 12.6278 8.34215 13.0256 7.93147C13.4234 7.52078 13.739 7.03314 13.9545 6.49638C14.1699 5.95962 14.2809 5.38427 14.2811 4.80318C14.2809 4.22209 14.1699 3.64674 13.9545 3.10998C13.739 2.57322 13.4234 2.08558 13.0256 1.67489C12.6278 1.26421 12.1556 0.93853 11.636 0.716456C11.1164 0.494382 10.5595 0.380263 9.99719 0.380617C9.43482 0.380145 8.87786 0.494177 8.35814 0.716198C7.83842 0.93822 7.36612 1.26388 6.96821 1.67458C6.57031 2.08527 6.2546 2.57296 6.03913 3.10977C5.82365 3.64659 5.71263 4.22201 5.7124 4.80318C5.71263 5.38435 5.82365 5.95977 6.03913 6.49659C6.2546 7.0334 6.57031 7.52109 6.96821 7.93178C7.36612 8.34248 7.83842 8.66814 8.35814 8.89016C8.87786 9.11218 9.43482 9.22621 9.99719 9.22574V9.22574ZM68.9916 1.46113C69.6516 1.46113 70.1935 1.65587 70.6173 2.04536C71.0411 2.43485 71.253 2.94639 71.253 3.57998V25.4191C71.253 26.0769 71.0533 26.6001 70.6521 26.9896C70.2526 27.3791 69.722 27.5738 69.0628 27.5738C68.4028 27.5738 67.8731 27.3791 67.4719 26.9905C67.0716 26.6001 66.8709 26.0769 66.8709 25.42V24.5064C66.3525 25.5043 65.5987 26.2833 64.6087 26.8433C63.643 27.4033 62.5358 27.6833 61.287 27.6833C59.802 27.6833 58.4716 27.2938 57.294 26.5148C56.139 25.7359 55.2324 24.6401 54.5724 23.2275C53.9358 21.7916 53.618 20.1484 53.618 18.2979C53.618 16.4474 53.9358 14.8284 54.5724 13.4401C55.2324 12.0527 56.139 10.9811 57.294 10.2264C58.4481 9.47164 59.7794 9.09382 61.287 9.09382C62.5358 9.09382 63.643 9.36215 64.6096 9.89792C65.5514 10.4093 66.3258 11.1971 66.8353 12.1622V3.50639C66.8353 2.89792 67.0238 2.41062 67.4007 2.04536C67.8019 1.65587 68.3316 1.46113 68.9916 1.46113ZM62.4533 24.1411C63.8671 24.1411 64.9509 23.6422 65.7047 22.6433C66.4819 21.6454 66.8709 20.2202 66.8709 18.3706C66.8709 16.5201 66.4819 15.1075 65.7047 14.1347C64.9509 13.1359 63.8792 12.636 62.4889 12.636C61.0751 12.636 59.9792 13.1233 59.2019 14.0979C58.4247 15.0716 58.0356 16.4716 58.0356 18.2979C58.0356 20.1484 58.4247 21.5843 59.2019 22.6074C59.9792 23.6305 61.063 24.1411 62.4533 24.1411ZM83.6784 27.6833C81.912 27.6833 80.3567 27.3064 79.0141 26.5516C77.6941 25.7969 76.6693 24.7137 75.939 23.3011C75.2087 21.8886 74.8431 20.2454 74.8431 18.3706C74.8431 16.4959 75.2078 14.8643 75.939 13.4769C76.6693 12.0643 77.6941 10.9811 79.0132 10.2264C80.3567 9.47164 81.912 9.09382 83.6784 9.09382C85.4456 9.09382 86.9888 9.47074 88.3079 10.2264C89.6306 10.9593 90.7039 12.0938 91.383 13.4769C92.1133 14.8643 92.4789 16.4959 92.4789 18.3706C92.4789 20.2463 92.1133 21.8886 91.383 23.3011C90.7039 24.6842 89.6306 25.8187 88.3079 26.5516C86.9888 27.3055 85.4456 27.6833 83.6792 27.6833H83.6784ZM83.6436 24.1411C85.0809 24.1411 86.1759 23.6538 86.9297 22.6801C87.6844 21.7064 88.0613 20.2696 88.0613 18.3706C88.0613 16.4959 87.6844 15.0716 86.9297 14.0979C86.1759 13.0991 85.0922 12.6001 83.6784 12.6001C82.2655 12.6001 81.1686 13.0991 80.3923 14.0979C79.6385 15.0716 79.2607 16.4959 79.2607 18.3706C79.2607 20.2696 79.6376 21.7064 80.3923 22.6801C81.1461 23.6538 82.2298 24.1411 83.6436 24.1411ZM110.757 9.16741C111.417 9.16741 111.946 9.36215 112.347 9.75074C112.748 10.1411 112.948 10.6643 112.948 11.3213V25.7475C112.948 28.5475 112.194 30.6655 110.686 32.1032C109.178 33.5391 106.952 34.257 104.006 34.257C101.438 34.257 99.2943 33.7589 97.5748 32.7601C96.7029 32.2243 96.267 31.5791 96.267 30.8243C96.267 30.2886 96.3851 29.8632 96.6205 29.5464C96.8792 29.2296 97.2092 29.0707 97.6096 29.0707C97.8223 29.0707 98.0811 29.1201 98.3877 29.2179C98.6934 29.3391 99.0121 29.4737 99.3412 29.6191C100.079 29.9435 100.834 30.224 101.603 30.4591C102.287 30.6538 103.064 30.7516 103.936 30.7516C107.022 30.7516 108.566 29.1937 108.566 26.076V23.7391C108.047 24.7379 107.293 25.516 106.304 26.0769C105.314 26.6127 104.184 26.8801 102.911 26.8801C101.403 26.8801 100.06 26.5148 98.8818 25.7852C97.7277 25.0296 96.8211 23.9832 96.1611 22.6442C95.5011 21.3043 95.1711 19.7589 95.1711 18.0054C95.1711 16.2527 95.4898 14.7064 96.1255 13.3674C96.7855 12.0033 97.7042 10.9569 98.8818 10.2264C100.06 9.47164 101.403 9.09382 102.911 9.09382C104.184 9.09382 105.314 9.37382 106.304 9.93382C107.268 10.4437 108.057 11.2469 108.566 12.2348V11.2854C108.566 10.6527 108.766 10.1411 109.167 9.75074C109.567 9.36215 110.097 9.16741 110.757 9.16741V9.16741ZM104.078 23.3379C105.491 23.3379 106.586 22.8623 107.364 21.9137C108.165 20.9633 108.566 19.6611 108.566 18.0054C108.566 16.3254 108.165 15.0106 107.364 14.0611C106.586 13.1116 105.491 12.6369 104.078 12.6369C102.687 12.6369 101.591 13.1116 100.791 14.0611C99.9899 15.0106 99.5887 16.3254 99.5887 18.0054C99.5887 19.6611 99.9899 20.9633 100.791 21.9137C101.591 22.8632 102.687 23.3379 104.078 23.3379ZM123.779 27.6833C121.211 27.6833 119.138 27.1601 117.559 26.1128C116.805 25.6506 116.428 24.9928 116.428 24.1411C116.428 23.6538 116.558 23.2643 116.816 22.9727C117.076 22.6559 117.394 22.497 117.771 22.497C118.171 22.497 118.725 22.6927 119.432 23.0822C120.186 23.4474 120.869 23.7274 121.482 23.9222C122.118 24.1169 122.919 24.2138 123.885 24.2138C124.875 24.2138 125.64 24.0433 126.182 23.7023C126.748 23.3613 127.03 22.8874 127.03 22.278C127.03 21.8652 126.913 21.5359 126.676 21.2927C126.465 21.0486 126.064 20.8296 125.475 20.6348C124.909 20.4159 124.038 20.1727 122.86 19.9043C120.763 19.4664 119.255 18.8454 118.336 18.0422C117.441 17.2389 116.994 16.1306 116.994 14.7189C116.994 13.6474 117.299 12.6854 117.912 11.8328C118.525 10.9569 119.361 10.2874 120.421 9.82433C121.505 9.33792 122.73 9.09382 124.096 9.09382C125.086 9.09382 126.041 9.22844 126.96 9.49587C127.836 9.72044 128.672 10.0902 129.434 10.5907C130.188 11.078 130.564 11.7233 130.564 12.5274C130.564 13.0138 130.435 13.4284 130.175 13.7686C129.917 14.0854 129.598 14.2442 129.221 14.2442C128.962 14.2442 128.703 14.1948 128.444 14.0979C128.134 13.9348 127.827 13.7642 127.525 13.5864C126.842 13.2211 126.253 12.9537 125.758 12.7832C125.263 12.5884 124.65 12.4906 123.92 12.4906C123.048 12.4906 122.353 12.6737 121.835 13.038C121.34 13.4033 121.093 13.9032 121.093 14.5359C121.093 15.1443 121.352 15.6074 121.871 15.9233C122.389 16.2401 123.39 16.5569 124.875 16.8737C126.453 17.2147 127.69 17.6033 128.585 18.0422C129.481 18.4801 130.116 19.0284 130.493 19.6854C130.894 20.3432 131.094 21.1832 131.094 22.2054C131.094 23.8611 130.423 25.1884 129.08 26.1864C127.76 27.1843 125.993 27.6833 123.779 27.6833V27.6833Z" fill="#9C9C9C"/>
</svg>
