<svg width="30" height="32" viewBox="0 0 30 32" fill="none" xmlns="http://www.w3.org/2000/svg">
<g clip-path="url(#clip0_58_237)">
<path d="M23.75 9.33337H22.725L20.6 3.09337C20.4241 2.57885 20.1045 2.13424 19.6842 1.81953C19.264 1.50482 18.7634 1.33514 18.25 1.33337H16.25C15.5625 1.33337 15 1.93337 15 2.66671C15 3.40004 15.5625 4.00004 16.25 4.00004H18.25L20.075 9.33337H14.0625L13.6125 8.00004H13.725C14.4125 8.00004 14.975 7.40004 14.975 6.66671C14.975 5.93337 14.4125 5.33337 13.725 5.33337H10C9.3125 5.33337 8.75 5.93337 8.75 6.66671C8.75 7.40004 9.3125 8.00004 10 8.00004H10.9375L13.2125 14.6667H12.375C11.825 11.6934 9.4875 9.49337 6.5625 9.34671C3.0625 9.16004 0 12.2667 0 16C0 19.7334 2.75 22.6667 6.25 22.6667C9.325 22.6667 11.8125 20.4134 12.375 17.3334H17.625C18.175 20.3067 20.5125 22.5067 23.4375 22.6534C26.9375 22.8267 30 19.7334 30 15.9867C30 12.2667 27.25 9.33337 23.75 9.33337ZM7.5 17.3334H9.775C9.25 18.9734 7.775 20.1067 6 19.9867C4.1375 19.8667 2.5875 18.1867 2.5 16.1867C2.4125 13.8534 4.0875 12 6.25 12C7.9125 12 9.275 13.1067 9.775 14.6667H7.5C6.8125 14.6667 6.25 15.2667 6.25 16C6.25 16.7334 6.8125 17.3334 7.5 17.3334ZM17.625 14.6667H15.875L14.9625 12H18.75C18.2 12.7734 17.8 13.6667 17.625 14.6667ZM23.6 20C21.675 19.92 20.05 18.1734 20 16.1067C19.975 14.8267 20.4875 13.7067 21.3125 12.96L22.0875 15.2267C22.325 15.92 23.0375 16.28 23.6875 16.0267C24.3375 15.7734 24.675 15.0134 24.4375 14.32L23.65 12.0134L23.6625 12C24.1637 11.9818 24.6631 12.0721 25.1306 12.2655C25.5982 12.4588 26.0241 12.7513 26.3828 13.1251C26.7414 13.499 27.0253 13.9464 27.2174 14.4406C27.4094 14.9347 27.5055 15.4652 27.5 16C27.5 18.2934 25.775 20.08 23.6 20ZM13.75 26.6667H8.75L16.25 30.6667V28H21.25L13.75 24V26.6667Z" fill="url(#paint0_linear_58_237)"/>
</g>
<defs>
<linearGradient id="paint0_linear_58_237" x1="15" y1="1.33337" x2="15" y2="30.6667" gradientUnits="userSpaceOnUse">
<stop stop-color="#FFBF00"/>
<stop offset="1" stop-color="#F2A60C"/>
</linearGradient>
<clipPath id="clip0_58_237">
<rect width="30" height="32" fill="white"/>
</clipPath>
</defs>
</svg>
