<svg width="25" height="25" viewBox="0 0 25 25" fill="none" xmlns="http://www.w3.org/2000/svg">
<path d="M20.834 4.16626H4.16648C3.02148 4.16626 2.09398 5.10376 2.09398 6.25001L2.08398 18.75C2.08398 19.8963 3.02148 20.8338 4.16648 20.8338H20.834C21.979 20.8338 22.9165 19.8963 22.9165 18.75V6.25001C22.9165 5.10376 21.979 4.16626 20.834 4.16626ZM20.4165 8.59376L13.0527 13.1988C12.8866 13.3011 12.6953 13.3552 12.5002 13.3552C12.3051 13.3552 12.1139 13.3011 11.9477 13.1988L4.58398 8.59376C4.48099 8.53439 4.39101 8.45489 4.31942 8.35998C4.24783 8.26508 4.19609 8.15672 4.16729 8.04138C4.1385 7.92604 4.13324 7.80608 4.15182 7.68866C4.1704 7.57124 4.21245 7.45877 4.27546 7.35796C4.33847 7.25715 4.42114 7.17007 4.51854 7.10191C4.61594 7.03376 4.72607 6.98592 4.84237 6.96126C4.95866 6.9366 5.07873 6.93563 5.19541 6.95839C5.31209 6.98116 5.42299 7.02719 5.52148 7.09376L12.5002 11.4588L19.479 7.09376C19.5775 7.02719 19.6884 6.98116 19.8051 6.95839C19.9217 6.93563 20.0418 6.9366 20.1581 6.96126C20.2744 6.98592 20.3845 7.03376 20.4819 7.10191C20.5793 7.17007 20.662 7.25715 20.725 7.35796C20.788 7.45877 20.8301 7.57124 20.8486 7.68866C20.8672 7.80608 20.862 7.92604 20.8332 8.04138C20.8044 8.15672 20.7526 8.26508 20.681 8.35998C20.6095 8.45489 20.5195 8.53439 20.4165 8.59376Z" fill="url(#paint0_linear_63_420)"/>
<defs>
<linearGradient id="paint0_linear_63_420" x1="12.5002" y1="4.16626" x2="12.5002" y2="20.8338" gradientUnits="userSpaceOnUse">
<stop stop-color="#FFBF00"/>
<stop offset="1" stop-color="#F2A60C"/>
</linearGradient>
</defs>
</svg>
