<svg width="20" height="20" viewBox="0 0 20 20" fill="none" xmlns="http://www.w3.org/2000/svg">
<path d="M1.66627 4.99999C2.12377 4.99999 2.49877 4.62499 2.49877 4.16749V3.33374C2.50002 2.87499 2.87502 2.49999 3.33252 2.49999H4.16627C4.62377 2.49999 4.99877 2.12499 4.99877 1.66749C4.99877 1.20874 4.62377 0.83374 4.16627 0.83374H3.33252C1.94877 0.83374 0.83252 1.94999 0.83252 3.33374V4.16749C0.83252 4.62499 1.20752 4.99999 1.66627 4.99999ZM4.16627 17.5H3.33252C3.11181 17.4993 2.90032 17.4115 2.74414 17.2555C2.58796 17.0996 2.49976 16.8882 2.49877 16.6675V15.8337C2.49877 15.375 2.12377 15.0012 1.66627 15.0012C1.20752 15.0012 0.83252 15.3762 0.83252 15.8337V16.6675C0.83252 18.0512 1.94877 19.1675 3.33252 19.1675H4.16627C4.62377 19.1675 4.99877 18.7925 4.99877 18.3337C4.99877 17.875 4.62377 17.5012 4.16627 17.5012V17.5ZM16.6663 0.83374H15.8338C15.375 0.83374 15 1.20874 15 1.66749C15 2.12499 15.375 2.49999 15.8338 2.49999H16.6663C17.125 2.49999 17.5 2.87499 17.5 3.33374V4.16749C17.5 4.62499 17.875 4.99999 18.3338 4.99999C18.7913 4.99999 19.1663 4.62499 19.1663 4.16749V3.33374C19.1663 1.94999 18.05 0.83374 16.6663 0.83374ZM18.3338 15C17.875 15 17.5 15.375 17.5 15.8337V16.6675C17.5 17.1262 17.125 17.5012 16.6663 17.5012H15.8338C15.375 17.5012 15 17.8762 15 18.3337C15 18.7925 15.375 19.1675 15.8338 19.1675H16.6663C18.05 19.1675 19.1663 18.0512 19.1663 16.6675V15.8337C19.1663 15.375 18.7913 15.0012 18.3338 15.0012V15ZM15.8313 12.3925V7.60874C15.8313 7.00874 15.515 6.45874 14.9988 6.16749L10.8313 3.76749C10.5786 3.61926 10.291 3.54111 9.99814 3.54111C9.70524 3.54111 9.41764 3.61926 9.16502 3.76749L4.99877 6.15749C4.48127 6.45749 4.16502 7.00749 4.16502 7.60749V12.3912C4.16502 12.9912 4.48127 13.5412 4.99877 13.8325L9.16502 16.2325C9.41764 16.3807 9.70524 16.4589 9.99814 16.4589C10.291 16.4589 10.5786 16.3807 10.8313 16.2325L15 13.8337C15.2541 13.6888 15.465 13.479 15.6113 13.2258C15.7576 12.9725 15.8339 12.6849 15.8325 12.3925H15.8313ZM9.16502 14.3087L5.83127 12.3925V8.53374L9.16502 10.475V14.3087ZM9.99877 9.03374L6.69877 7.10874L9.99877 5.20874L13.2988 7.10874L9.99877 9.03374ZM14.165 12.3925L10.8313 14.3087V10.475L14.165 8.53374V12.3925Z" fill="#999999"/>
</svg>
