<svg width="34" height="34" viewBox="0 0 34 34" fill="none" xmlns="http://www.w3.org/2000/svg">
<path d="M34 17.1038C34 7.71551 26.3883 0.10376 17 0.10376C7.61175 0.10376 0 7.71551 0 17.1038C0 25.5896 6.21634 32.6219 14.3438 33.8969V22.0182H10.0272V17.1023H14.3438V13.3596C14.3438 9.09959 16.8824 6.74509 20.7655 6.74509C22.6241 6.74509 24.5706 7.07801 24.5706 7.07801V11.2614H22.4259C20.3136 11.2614 19.6549 12.5718 19.6549 13.9163V17.1038H24.3695L23.6159 22.0196H19.6549V33.8983C27.7836 32.6219 34 25.5882 34 17.1038Z" fill="url(#paint0_linear_63_426)"/>
<defs>
<linearGradient id="paint0_linear_63_426" x1="17" y1="0.10376" x2="17" y2="33.8983" gradientUnits="userSpaceOnUse">
<stop stop-color="#FFBF00"/>
<stop offset="1" stop-color="#F2A60C"/>
</linearGradient>
</defs>
</svg>
