<svg width="140" height="32" viewBox="0 0 140 32" fill="none" xmlns="http://www.w3.org/2000/svg">
<path d="M2.29463 25.3238C1.60146 25.3238 1.03976 25.1116 0.609512 24.6872C0.203171 24.2627 0 23.7086 0 23.0248V2.33432C0 1.65053 0.191219 1.12 0.573659 0.742737C0.98 0.365474 1.52976 0.176842 2.22293 0.176842H14.8076C16.2656 0.176842 16.9946 0.789895 16.9946 2.016C16.9946 3.21853 16.2656 3.81979 14.8076 3.81979H4.55341V10.6105H14.0905C15.5485 10.6105 16.2776 11.2236 16.2776 12.4497C16.2776 13.6522 15.5485 14.2535 14.0905 14.2535H4.55341V23.0248C4.55341 23.7086 4.35024 24.2627 3.9439 24.6872C3.53756 25.1116 2.9878 25.3238 2.29463 25.3238V25.3238ZM23.5721 25.3238C22.9267 25.3238 22.3889 25.1469 21.9587 24.7933C21.5523 24.416 21.3491 23.8855 21.3491 23.2017V2.08674C21.3491 1.40295 21.5523 0.884211 21.9587 0.530526C22.3889 0.176842 22.9267 0 23.5721 0C24.2174 0 24.7552 0.176842 25.1855 0.530526C25.6157 0.884211 25.8309 1.40295 25.8309 2.08674V23.2017C25.8309 23.8855 25.6157 24.416 25.1855 24.7933C24.7552 25.1469 24.2174 25.3238 23.5721 25.3238V25.3238ZM44.3279 20.3722C44.7343 20.3722 45.057 20.5255 45.296 20.832C45.5589 21.1385 45.6904 21.5512 45.6904 22.0699C45.6904 22.8008 45.2482 23.4139 44.3638 23.9091C43.5511 24.3571 42.6309 24.7225 41.6031 25.0055C40.5752 25.2648 39.5952 25.3945 38.6631 25.3945C35.8426 25.3945 33.6077 24.5928 31.9584 22.9895C30.3091 21.3861 29.4845 19.1933 29.4845 16.4109C29.4845 14.6425 29.843 13.0745 30.5601 11.7069C31.2772 10.3394 32.2811 9.27832 33.5718 8.52379C34.8865 7.76926 36.3684 7.392 38.0177 7.392C39.5952 7.392 40.9696 7.7339 42.1409 8.41768C43.3121 9.10147 44.2204 10.0682 44.8657 11.3179C45.5111 12.5676 45.8338 14.0413 45.8338 15.7389C45.8338 16.7528 45.3796 17.2598 44.4713 17.2598H33.8945C34.0379 18.8867 34.504 20.0893 35.2928 20.8674C36.0816 21.6219 37.2289 21.9992 38.7348 21.9992C39.4996 21.9992 40.1689 21.9048 40.7426 21.7162C41.3401 21.5276 42.0094 21.2682 42.7504 20.9381C43.4674 20.5608 43.9933 20.3722 44.3279 20.3722V20.3722ZM38.1244 10.5044C36.9054 10.5044 35.9254 10.8817 35.1844 11.6362C34.4673 12.3907 34.0371 13.4754 33.8937 14.8901H41.9966C41.9488 13.4518 41.5902 12.3672 40.921 11.6362C40.2517 10.8817 39.3195 10.5044 38.1244 10.5044V10.5044ZM64.3513 21.8577C64.7816 22.2821 64.9967 22.7655 64.9967 23.3078C64.9967 23.8265 64.7935 24.2981 64.3872 24.7225C63.9809 25.1234 63.5028 25.3238 62.9531 25.3238C62.3555 25.3238 61.8416 25.0762 61.4113 24.5811L56.356 19.0636L51.3006 24.5811C50.8465 25.0526 50.3326 25.2884 49.7589 25.2884C49.2331 25.2884 48.767 25.088 48.3606 24.6872C47.9543 24.2863 47.7511 23.8265 47.7511 23.3078C47.7511 22.7655 47.9662 22.2821 48.3965 21.8577L53.6311 16.2341L48.6833 10.9288C48.253 10.5044 48.0379 10.0211 48.0379 9.47874C48.0379 8.93642 48.2411 8.47663 48.6474 8.09937C49.0538 7.69853 49.5199 7.49811 50.0457 7.49811C50.6194 7.49811 51.1333 7.7339 51.5874 8.20547L56.356 13.3693L61.1245 8.20547C61.5787 7.7339 62.0926 7.49811 62.6662 7.49811C63.216 7.49811 63.6821 7.69853 64.0645 8.09937C64.4709 8.47663 64.674 8.93642 64.674 9.47874C64.674 10.0211 64.4589 10.5044 64.0287 10.9288L59.0809 16.2341L64.3513 21.8577V21.8577ZM84.187 12.2375C85.645 12.6383 86.7684 13.3693 87.5572 14.4303C88.3699 15.4914 88.7762 16.7882 88.7762 18.3208C88.7762 20.4429 87.9994 22.1053 86.4457 23.3078C84.916 24.5103 82.8006 25.1116 80.0996 25.1116H70.8494C70.1562 25.1116 69.6065 24.9229 69.2001 24.5457C68.8177 24.1684 68.6265 23.6379 68.6265 22.9541V2.33432C68.6265 1.65053 68.8177 1.12 69.2001 0.742737C69.6065 0.365474 70.1562 0.176842 70.8494 0.176842H79.7402C82.3695 0.176842 84.4251 0.754526 85.9071 1.90989C87.4129 3.04168 88.1659 4.63326 88.1659 6.68463C88.1659 8.00505 87.8073 9.14863 87.0902 10.1154C86.3971 11.0821 85.429 11.7895 84.1861 12.2375H84.187ZM73.144 10.6813H78.9882C82.1672 10.6813 83.7567 9.51411 83.7567 7.17979C83.7567 6.00084 83.3623 5.12842 82.5735 4.56253C81.7848 3.99663 80.5896 3.71368 78.9882 3.71368H73.144V10.6813V10.6813ZM79.5977 21.5747C81.2709 21.5747 82.4899 21.28 83.2548 20.6905C84.0196 20.1011 84.4021 19.1815 84.4021 17.9318C84.4021 16.6821 84.0077 15.7507 83.2189 15.1377C82.454 14.5246 81.2469 14.2181 79.5977 14.2181H73.144V21.5747H79.5977ZM94.9294 25.3238C94.284 25.3238 93.7462 25.1469 93.316 24.7933C92.9096 24.416 92.7065 23.8855 92.7065 23.2017V2.08674C92.7065 1.40295 92.9096 0.884211 93.316 0.530526C93.7462 0.176842 94.284 0 94.9294 0C95.5748 0 96.1126 0.176842 96.5428 0.530526C96.9731 0.884211 97.1882 1.40295 97.1882 2.08674V23.2017C97.1882 23.8855 96.9731 24.416 96.5428 24.7933C96.1126 25.1469 95.5748 25.3238 94.9294 25.3238V25.3238ZM109.805 25.3945C108.013 25.3945 106.435 25.0291 105.073 24.2981C103.734 23.5672 102.694 22.5179 101.953 21.1503C101.212 19.7827 100.842 18.1912 100.842 16.3756C100.842 14.56 101.212 12.9802 101.953 11.6362C102.694 10.2686 103.734 9.21937 105.073 8.48842C106.435 7.75747 108.013 7.392 109.805 7.392C111.598 7.392 113.164 7.75747 114.502 8.48842C115.844 9.19834 116.932 10.297 117.621 11.6362C118.362 12.9802 118.733 14.56 118.733 16.3756C118.733 18.1912 118.362 19.7827 117.621 21.1503C116.932 22.4896 115.844 23.5882 114.502 24.2981C113.164 25.0291 111.598 25.3945 109.805 25.3945ZM109.769 21.9638C111.227 21.9638 112.339 21.4922 113.104 20.5491C113.869 19.6059 114.251 18.2147 114.251 16.3756C114.251 14.56 113.869 13.1806 113.104 12.2375C112.339 11.2707 111.239 10.7874 109.805 10.7874C108.371 10.7874 107.26 11.2707 106.471 12.2375C105.706 13.1806 105.324 14.56 105.324 16.3756C105.324 18.2147 105.706 19.6059 106.471 20.5491C107.236 21.4922 108.335 21.9638 109.769 21.9638ZM137.276 7.46274C137.945 7.46274 138.483 7.65137 138.889 8.02863C139.296 8.4059 139.499 8.91284 139.499 9.54947V23.52C139.499 26.2316 138.734 28.2829 137.204 29.6741C135.675 31.0653 133.416 31.7608 130.428 31.7608C127.823 31.7608 125.647 31.2775 123.903 30.3107C123.018 29.792 122.576 29.1672 122.576 28.4362C122.576 27.9175 122.695 27.5048 122.935 27.1983C123.197 26.8918 123.532 26.7385 123.938 26.7385C124.154 26.7385 124.416 26.7857 124.727 26.88C125.038 26.9979 125.361 27.1276 125.695 27.2691C126.556 27.6227 127.321 27.8939 127.99 28.0825C128.683 28.2712 129.472 28.3655 130.356 28.3655C133.487 28.3655 135.053 26.8564 135.053 23.8383V21.5747C134.527 22.5415 133.762 23.296 132.758 23.8383C131.755 24.3571 130.607 24.6164 129.316 24.6164C127.787 24.6164 126.424 24.2627 125.229 23.5554C124.058 22.8244 123.138 21.8105 122.468 20.5137C121.799 19.2168 121.465 17.7196 121.465 16.0219C121.465 14.3242 121.787 12.8269 122.433 11.5301C123.102 10.2097 124.034 9.19579 125.229 8.48842C126.424 7.75747 127.787 7.392 129.316 7.392C130.607 7.392 131.755 7.66316 132.758 8.20547C133.736 8.69908 134.537 9.47682 135.053 10.4337V9.51411C135.053 8.90105 135.256 8.4059 135.663 8.02863C136.069 7.65137 136.607 7.46274 137.276 7.46274V7.46274ZM130.5 21.1857C131.934 21.1857 133.045 20.7259 133.834 19.8063C134.647 18.8867 135.053 17.6253 135.053 16.0219C135.053 14.3949 134.647 13.1217 133.834 12.2021C133.045 11.2825 131.934 10.8227 130.5 10.8227C129.089 10.8227 127.978 11.2825 127.165 12.2021C126.353 13.1217 125.946 14.3949 125.946 16.0219C125.946 17.6253 126.353 18.8867 127.165 19.8063C127.978 20.7259 129.089 21.1857 130.5 21.1857Z" fill="#9C9C9C"/>
</svg>
