<svg width="146" height="52" viewBox="0 0 146 52" fill="none" xmlns="http://www.w3.org/2000/svg">
<path d="M26.1666 11.2154L21.3328 40.6453H14.3878L16.1524 30.0186H8.67177L6.94288 40.6453H0L4.87262 11.2154H11.7787L9.70742 23.6413H17.1881L19.2615 11.2154H26.1676H26.1666V11.2154ZM40.4105 40.6453L40.6416 34.2285H34.2344L32.3542 40.6453H25.0259L34.8866 11.2154H47.5466L47.701 40.6453H40.4115H40.4105ZM38.8381 18.3685L35.8078 28.7508H40.8338L41.255 18.3695H38.8381V18.3685ZM77.4987 11.2154L72.6639 40.6453H65.7189L60.8862 24.5419L58.2771 40.6463H51.3311L56.2037 11.2154H63.3398L68.098 26.2579L70.5905 11.2154H77.4976H77.4987ZM93.7005 11.2154C97.0511 11.2154 99.4428 12.115 100.874 13.9131C101.924 15.2755 102.447 16.979 102.447 19.0226C102.447 19.759 102.384 20.5348 102.257 21.3522L100.76 30.4678C100.248 33.5462 98.9943 36.0131 96.9997 37.8664C95.004 39.7197 92.4212 40.6453 89.248 40.6453H78.0837L82.9574 11.2154H93.7005V11.2154ZM91.2826 17.5926H88.789L86.0654 34.268H89.7102C90.9118 34.268 91.8456 33.9269 92.5104 33.2467C93.2016 32.5374 93.6742 31.3934 93.9284 29.8137L95.0429 23.1098C95.1395 22.569 95.191 22.022 95.1962 21.4739C95.1962 18.8843 93.8927 17.5916 91.2826 17.5916V17.5926ZM123.01 40.6453H103.749L108.624 11.2154H127.884L126.81 17.5926H114.456L113.573 23.1109H123.779L122.705 29.4861H112.499L111.732 34.269H124.086L123.011 40.6453H123.01ZM144.925 40.6453H127.43L132.303 11.2154H139.209L135.411 34.269H146L144.925 40.6453ZM77.171 45.8827H143.914L141.829 52H75.086L77.171 45.8827V45.8827ZM7.3 0H80.3L78.214 6.11728H5.21399L7.3 0Z" fill="#9C9C9C"/>
</svg>
