<svg width="25" height="25" viewBox="0 0 25 25" fill="none" xmlns="http://www.w3.org/2000/svg">
<path d="M12.5002 2.08374C6.77148 2.08374 2.08398 6.77124 2.08398 12.5C2.08398 18.2287 6.77148 22.9162 12.5002 22.9162C18.229 22.9162 22.9165 18.2287 22.9165 12.5C22.9165 6.77124 18.229 2.08374 12.5002 2.08374ZM16.1977 16.4587L11.9477 13.8437C11.7947 13.7523 11.6681 13.6227 11.5805 13.4675C11.4928 13.3123 11.447 13.137 11.4477 12.9587V8.07249C11.4532 7.86508 11.5388 7.66785 11.6866 7.52219C11.8343 7.37652 12.0328 7.29375 12.2402 7.29124C12.4469 7.29287 12.6447 7.37571 12.7909 7.52187C12.937 7.66803 13.0199 7.8658 13.0215 8.07249V12.7075L17.0215 15.1137C17.3965 15.3437 17.5215 15.8325 17.2915 16.2087C17.1784 16.3856 17.0004 16.5108 16.7958 16.5576C16.5912 16.6044 16.3764 16.5689 16.1977 16.4587Z" fill="url(#paint0_linear_68_128)"/>
<defs>
<linearGradient id="paint0_linear_68_128" x1="12.5002" y1="2.08374" x2="12.5002" y2="22.9162" gradientUnits="userSpaceOnUse">
<stop stop-color="#FFBF00"/>
<stop offset="1" stop-color="#F2A60C"/>
</linearGradient>
</defs>
</svg>
