<svg width="34" height="34" viewBox="0 0 34 34" fill="none" xmlns="http://www.w3.org/2000/svg">
<path d="M17 0C12.3816 0 11.8051 0.02125 9.99175 0.102C8.18125 0.187 6.94875 0.47175 5.865 0.8925C4.74725 1.326 3.79809 1.90825 2.85316 2.85316C1.90825 3.79809 1.32459 4.74584 0.8925 5.865C0.47175 6.94875 0.185584 8.18125 0.102 9.99175C0.017 11.8051 0 12.3816 0 17C0 21.6184 0.02125 22.1949 0.102 24.0083C0.187 25.8174 0.47175 27.0513 0.8925 28.135C1.326 29.2514 1.90825 30.2019 2.85316 31.1469C3.79809 32.0904 4.74584 32.6754 5.865 33.1075C6.95016 33.5269 8.18266 33.8144 9.99175 33.898C11.8051 33.983 12.3816 34 17 34C21.6184 34 22.1949 33.9787 24.0083 33.898C25.8174 33.813 27.0513 33.5269 28.135 33.1075C29.2514 32.674 30.2019 32.0904 31.1469 31.1469C32.0904 30.2019 32.6754 29.2556 33.1075 28.135C33.5269 27.0513 33.8144 25.8174 33.898 24.0083C33.983 22.1949 34 21.6184 34 17C34 12.3816 33.9787 11.8051 33.898 9.99175C33.813 8.18266 33.5269 6.94734 33.1075 5.865C32.674 4.74725 32.0904 3.79809 31.1469 2.85316C30.2019 1.90825 29.2556 1.32459 28.135 0.8925C27.0513 0.47175 25.8174 0.185584 24.0083 0.102C22.1949 0.017 21.6184 0 17 0ZM17 3.06C21.5376 3.06 22.0787 3.08266 23.8709 3.16059C25.5284 3.2385 26.4279 3.51334 27.0258 3.7485C27.8219 4.05591 28.3857 4.42425 28.9836 5.01784C29.5771 5.61284 29.9455 6.17809 30.2529 6.97425C30.4853 7.57209 30.7629 8.47166 30.838 10.1292C30.9188 11.9226 30.9371 12.461 30.9371 17C30.9371 21.539 30.9159 22.0787 30.8324 23.8709C30.7459 25.5284 30.4696 26.4279 30.2359 27.0258C29.9186 27.8219 29.5574 28.3857 28.9624 28.9836C28.3687 29.5771 27.795 29.9455 27.0074 30.2529C26.4124 30.4853 25.4986 30.7629 23.8411 30.838C22.0362 30.9188 21.505 30.9371 16.9575 30.9371C12.4086 30.9371 11.8774 30.9159 10.0739 30.8324C8.415 30.7459 7.50125 30.4696 6.90625 30.2359C6.10016 29.9186 5.54625 29.5574 4.95266 28.9624C4.35625 28.3687 3.97516 27.795 3.67766 27.0074C3.44391 26.4124 3.16909 25.4986 3.08266 23.8411C3.01891 22.0561 2.99625 21.505 2.99625 16.9788C2.99625 12.4511 3.01891 11.8986 3.08266 10.0923C3.16909 8.43484 3.44391 7.5225 3.67766 6.9275C3.97516 6.12 4.35625 5.5675 4.95266 4.97109C5.54625 4.3775 6.10016 3.995 6.90625 3.69891C7.50125 3.46375 8.39516 3.1875 10.0527 3.1025C11.8589 3.03875 12.3901 3.0175 16.9362 3.0175L17 3.06ZM17 8.2705C12.1763 8.2705 8.2705 12.1805 8.2705 17C8.2705 21.8237 12.1805 25.7295 17 25.7295C21.8237 25.7295 25.7295 21.8195 25.7295 17C25.7295 12.1763 21.8195 8.2705 17 8.2705ZM17 22.6666C13.8691 22.6666 11.3334 20.1309 11.3334 17C11.3334 13.8691 13.8691 11.3334 17 11.3334C20.1309 11.3334 22.6666 13.8691 22.6666 17C22.6666 20.1309 20.1309 22.6666 17 22.6666ZM28.1151 7.92625C28.1151 9.0525 27.2 9.96625 26.0751 9.96625C24.9489 9.96625 24.0351 9.05109 24.0351 7.92625C24.0351 6.80141 24.9504 5.88766 26.0751 5.88766C27.1986 5.88625 28.1151 6.80141 28.1151 7.92625Z" fill="white"/>
</svg>
