<svg width="269" height="52" viewBox="0 0 269 52" fill="none" xmlns="http://www.w3.org/2000/svg">
<g clip-path="url(#clip0_23_5)">
<path fill-rule="evenodd" clip-rule="evenodd" d="M18.0218 45.8145C17.8499 45.8129 17.6807 45.7728 17.5272 45.6971C17.3736 45.6215 17.2398 45.5124 17.1359 45.3782C16.8408 44.9935 16.6416 44.5466 16.5539 44.0731C16.4137 43.4703 16.3058 42.8606 16.2306 42.2467C16.1412 41.4562 16.0954 40.6615 16.0935 39.8662C16.0669 38.1185 16.0729 36.3705 16.1116 34.623C16.1349 33.5501 16.1452 32.713 16.1452 32.1093V12.1311C16.1452 11.1469 16.1517 10.3986 16.1633 9.88498C16.175 9.37132 16.2151 8.79045 16.281 8.14235C16.3198 7.6604 16.4052 7.18352 16.5384 6.71805C16.6677 6.35913 16.8397 6.01669 17.0492 5.69581C17.2432 5.35971 17.5252 5.08196 17.8679 4.89171C18.2662 4.6964 18.6762 4.52391 19.0952 4.37171C19.6351 4.17489 20.1948 4.0346 20.7648 3.95318C21.5075 3.84684 22.2526 3.75719 22.9996 3.6843V1.83893L22.4176 1.2682H1.82616L1.2804 1.83893V3.41415C4.73601 3.61581 6.66816 4.57718 7.07683 6.29698C7.31479 7.74918 7.4286 9.21786 7.41825 10.6878V41.2879C7.47542 42.8774 7.40667 44.4688 7.21262 46.0478C7.11821 46.2939 6.97983 46.5196 6.80395 46.7175C6.5406 47.0264 6.26222 47.3227 5.96979 47.6053C5.7381 47.8248 5.5163 48.0542 5.30505 48.2927V49.4659C22.8767 49.4659 33.7531 49.5775 37.9342 49.802L39.4021 44.9419L38.4813 44.3039C31.6916 45.1423 24.8632 45.6458 18.0231 45.8132H18.0218V45.8145ZM50.6846 31.8049C50.6179 31.8232 50.5494 31.8343 50.4802 31.8379C50.1401 31.8379 49.9694 31.7161 49.9694 31.4701C49.9707 30.359 50.056 29.2493 50.2255 28.1509C50.4169 26.9537 50.7363 25.7792 51.1799 24.6492C51.6074 23.5034 52.1936 22.4207 52.9219 21.4315C53.6939 20.4253 54.6964 19.6112 55.8485 19.0551C57.0005 18.499 58.2698 18.2165 59.5538 18.2303C60.4804 18.1799 61.4044 18.3667 62.2352 18.7723C63.0659 19.1778 63.7748 19.7883 64.2924 20.5437C65.3673 22.106 65.927 23.9544 65.896 25.8388C65.8914 26.1843 65.7796 26.5201 65.5753 26.8016C65.371 27.083 65.0841 27.2967 64.7528 27.4141C62.8857 28.1519 60.9792 28.79 59.0417 29.3254C56.3167 30.1118 53.6006 30.9277 50.8941 31.7732C50.8233 31.7761 50.753 31.7867 50.6846 31.8049V31.8049ZM70.9372 42.262C66.844 44.6971 63.3095 45.9146 60.3349 45.9146C58.3198 45.9576 56.3412 45.3835 54.6743 44.2722C53.1237 43.2517 51.8907 41.831 51.1114 40.1667C50.344 38.4979 49.9545 36.6858 49.9694 34.8551C64.8355 30.3197 72.3365 28.0507 72.4723 28.0507C73.0627 27.9323 73.5902 27.6102 73.9592 27.143C74.3281 26.6757 74.5141 26.0942 74.4833 25.504C74.5238 23.8587 74.1304 22.2309 73.3414 20.7783C72.6208 19.4792 71.5543 18.3961 70.2556 17.6444C68.9453 16.8902 67.5253 16.3363 66.0447 16.002C64.4387 15.6454 62.7963 15.4709 61.1497 15.482C58.1959 15.437 55.2666 16.0144 52.5598 17.1751C50.1732 18.1861 48.0646 19.7368 46.4064 21.7004C44.8431 23.5991 43.6367 25.7554 42.8435 28.0685C42.021 30.4486 41.6058 32.9458 41.6149 35.4588C41.6149 40.6208 43.0375 44.4865 45.8775 47.0561C48.4459 49.4025 52.0722 50.5744 56.7539 50.5744C59.4382 50.5474 62.0804 49.9169 64.4773 48.7315C67.3637 47.3216 70.1288 45.6844 72.7452 43.8359L71.9989 42.5321L70.9385 42.262H70.9372ZM116.86 6.92098C115.946 4.58071 114.152 2.67324 111.847 1.59161C108.992 0.413559 105.908 -0.135427 102.812 -0.0165811C100.554 -0.0292878 98.3023 0.24093 96.1132 0.787517C94.077 1.29598 92.1331 2.11012 90.3504 3.20108C88.6043 4.28058 87.1763 5.78898 86.2081 7.57669C85.157 9.5321 84.6289 11.717 84.673 13.927C84.6718 15.509 85.0638 17.0675 85.8149 18.4675C86.5324 19.8532 87.5034 21.0977 88.6795 22.1392C89.9444 23.2333 91.2886 24.2358 92.7016 25.1387C94.1199 26.0655 95.5886 26.9156 97.1013 27.6855C98.5233 28.4023 99.9221 29.1628 101.295 29.9659C102.433 30.5975 103.502 31.3445 104.483 32.1943C107.005 34.4962 108.267 36.6853 108.267 38.764C108.263 39.8682 108.027 40.9597 107.576 41.9712C107.124 42.9827 106.466 43.8927 105.642 44.6451C104.824 45.4709 103.843 46.1243 102.758 46.5653C101.674 47.0062 100.509 47.2255 99.3348 47.2096C97.9621 47.2482 96.5987 46.9784 95.3488 46.4207C94.0988 45.8629 92.9956 45.0322 92.1235 43.9919C90.3138 41.9596 89.3256 39.3478 89.3456 36.6498L88.0174 36.1805L81.2329 43.6545C82.7834 45.8552 84.8856 47.6273 87.3371 48.8C89.8297 49.9993 92.5726 50.6136 95.3489 50.5946C97.8822 50.5822 100.399 50.1974 102.816 49.4532C105.247 48.7355 107.565 47.692 109.704 46.3522C111.738 45.0785 113.465 43.3864 114.766 41.3932C116.041 39.4978 116.723 37.278 116.727 35.0073C116.737 33.7888 116.518 32.5789 116.08 31.4384C115.675 30.3792 115.112 29.385 114.409 28.4883C113.582 27.4928 112.624 26.6084 111.561 25.8579C110.4 24.999 109.187 24.2092 107.93 23.4925C106.425 22.6514 104.902 21.8412 103.362 21.0624C102.288 20.5521 101.231 20.0099 100.191 19.4365C99.2074 18.8728 98.2503 18.2659 97.3225 17.6178C96.3712 16.9783 95.5019 16.2288 94.7333 15.3856C94.0579 14.5986 93.506 13.7171 93.0961 12.7703C92.641 11.7508 92.4088 10.6491 92.4145 9.5362C92.3935 8.62601 92.559 7.72094 92.9011 6.87459C93.2432 6.02823 93.755 5.25779 94.4061 4.60888C95.0943 3.93434 95.9179 3.40735 96.8246 3.06131C97.7314 2.71526 98.7015 2.55771 99.6736 2.59864C100.878 2.54764 102.078 2.75851 103.19 3.21613C104.301 3.67375 105.295 4.36678 106.101 5.24557C107.716 7.03806 108.733 9.27212 109.016 11.6479L110.21 12.0157L116.86 6.92098V6.92098ZM150.017 19.7751C149.408 18.729 148.525 17.8613 147.46 17.2614C146.406 16.6706 145.268 16.236 144.084 15.9715C142.814 15.6952 141.516 15.5604 140.215 15.5695C137.733 15.5352 135.266 15.95 132.935 16.7934C130.936 17.5053 129.104 18.6053 127.549 20.0275C126.103 21.4009 124.904 23.0037 124.003 24.7684C123.076 26.5436 122.393 28.4317 121.973 30.3831C121.559 32.3568 121.354 34.3671 121.36 36.3822C121.353 38.0944 121.6 39.7989 122.092 41.4401C122.571 43.0293 123.315 44.5297 124.291 45.8817C125.321 47.2762 126.702 48.3849 128.299 49.0993C130.133 49.9212 132.131 50.3283 134.146 50.289C140.533 50.289 146.534 47.5292 152.148 42.0108L151.466 41.0381L150.614 40.8377C146.455 43.9881 142.613 45.5633 139.09 45.5633C137.771 45.5842 136.467 45.2908 135.289 44.7085C134.221 44.1886 133.292 43.4317 132.574 42.4979C131.862 41.5379 131.283 40.4896 130.852 39.3804C130.404 38.2728 130.079 37.1214 129.881 35.9459C129.699 34.8374 129.609 33.7162 129.608 32.5938C129.615 31.1669 129.741 29.7439 129.983 28.3374C130.25 26.771 130.65 25.2301 131.176 23.7284C131.654 22.2609 132.485 20.9273 133.597 19.8398C134.087 19.3531 134.671 18.9675 135.315 18.7057C135.96 18.4439 136.651 18.3112 137.348 18.3153C138.279 18.265 139.207 18.4705 140.026 18.9087C140.845 19.347 141.523 20.0006 141.984 20.7961C143.038 22.6588 143.557 24.7674 143.484 26.8966L144.678 27.3659L151.122 23.613C151.07 22.2658 150.691 20.9503 150.017 19.7751V19.7751ZM162.514 29.7464C162.687 28.43 162.989 27.1338 163.418 25.8756C163.809 24.6517 164.366 23.4862 165.07 22.4068C165.748 21.407 166.653 20.5752 167.714 19.9768C168.858 19.329 170.16 18.9989 171.481 19.0218C172.914 18.986 174.327 19.3521 175.555 20.077C176.696 20.7737 177.612 21.7733 178.197 22.9598C178.814 24.1863 179.26 25.4875 179.525 26.8306C179.806 28.2765 179.944 29.7477 179.935 31.2215C179.935 32.5621 179.924 33.6794 179.9 34.5723C179.864 35.6479 179.785 36.7217 179.662 37.7912C179.561 38.8439 179.374 39.8852 179.1 40.9074C178.832 41.8079 178.484 42.683 178.06 43.5226C177.67 44.3538 177.106 45.0955 176.406 45.7003C175.683 46.2793 174.864 46.7326 173.985 47.0409C172.919 47.4149 171.793 47.5967 170.661 47.5774C169.414 47.5923 168.194 47.2291 167.165 46.5374C166.163 45.8785 165.329 45.0013 164.729 43.9742C164.099 42.8687 163.607 41.693 163.262 40.4724C162.9 39.2713 162.638 38.0434 162.477 36.8007C162.345 35.7274 162.277 34.6476 162.273 33.5665C162.272 32.2895 162.353 31.0137 162.514 29.7464V29.7464ZM158.286 47.0751C160.762 49.287 164.695 50.393 170.083 50.393C172.075 50.4057 174.061 50.1812 175.998 49.7221C177.821 49.2777 179.558 48.548 181.143 47.5609C182.737 46.575 184.13 45.3077 185.252 43.8232C186.479 42.14 187.392 40.256 187.946 38.2592C188.633 35.8378 188.966 33.3328 188.935 30.8194C189.001 28.7958 188.618 26.7823 187.811 24.9185C187.004 23.0548 185.794 21.3854 184.264 20.0263C181.421 17.5252 177.296 16.2734 171.887 16.2734C166.477 16.2734 162.022 17.9158 158.521 21.2007C156.802 22.7938 155.446 24.7249 154.541 26.8678C153.637 29.0106 153.203 31.3167 153.271 33.635C153.271 39.6239 154.94 44.1035 158.282 47.0751H158.286V47.0751ZM211.644 20.5298C213.462 20.5298 214.758 20.8874 215.531 21.6027C216.251 22.4652 216.707 23.5128 216.843 24.6213C217.128 25.9276 217.305 27.2568 217.371 28.5923C217.417 29.7655 217.44 31.2798 217.44 33.1341C217.438 35.5418 217.421 37.9495 217.39 40.357C217.378 41.0824 217.383 41.9373 217.405 42.9215C217.412 43.6545 217.457 44.3876 217.542 45.1156C217.611 45.5976 217.701 46.1226 217.815 46.6908C217.894 47.1677 218.056 47.6256 218.292 48.0479C218.497 48.384 218.748 48.6897 219.04 48.9547C220.063 49.865 221.409 50.3458 222.789 50.2941C224.495 50.2941 226.449 49.4443 228.654 47.7473C230.494 46.2465 232.247 44.6459 233.905 42.9532L233.121 41.8117H232.302C230.969 42.8609 229.338 43.4813 227.632 43.5886C227.271 43.6089 226.909 43.557 226.569 43.436C226.229 43.315 225.918 43.1274 225.654 42.8847C225.418 42.7022 225.216 42.4818 225.056 42.2328C224.868 41.7943 224.748 41.331 224.699 40.858C224.569 39.897 224.512 38.9279 224.528 37.9586C224.528 37.2218 224.569 36.0308 224.647 34.3897C224.711 33.2229 224.751 32.055 224.768 30.8866V28.8751C224.79 26.7076 224.784 25.206 224.751 24.3663C224.683 23.2209 224.551 22.0799 224.358 20.9483C224.273 19.8814 223.909 18.854 223.301 17.9653C222.7 17.3268 221.983 16.8041 221.187 16.4243C220.104 15.9108 218.911 15.6631 217.709 15.7026C213.709 15.7026 209.071 17.3121 203.799 20.5298L202.98 20.2279C202.936 18.9955 202.528 17.8022 201.804 16.7934C201.133 15.9309 199.98 15.5022 198.344 15.5022C197.363 15.5144 196.391 15.6783 195.462 15.988C194.382 16.3431 193.352 16.8276 192.392 17.4288C191.357 18.0667 190.46 18.659 189.698 19.2057C188.936 19.7523 188.056 20.4169 187.056 21.1994L188.317 22.8419C188.549 22.6948 188.782 22.5497 189.017 22.4068C189.414 22.1608 189.76 21.9604 190.056 21.8031C190.351 21.6471 190.704 21.4632 191.113 21.2502C191.479 21.0548 191.862 20.8912 192.256 20.7606C192.557 20.6591 192.873 20.6021 193.192 20.5932C193.587 20.5843 193.976 20.682 194.318 20.8785C194.664 21.103 194.925 21.4328 195.065 21.8171C195.236 22.2229 195.383 22.6351 195.507 23.0562C195.647 23.6231 195.727 24.2015 195.747 24.7836C195.793 25.5446 195.82 26.1584 195.829 26.6264C195.84 27.0944 195.845 27.7984 195.846 28.7382V29.3089C195.846 31.498 195.676 38.2009 195.335 49.4177L196.188 49.8869L203.859 47.708C203.632 46.7479 203.461 43.7205 203.347 38.627C203.234 33.6447 203.179 28.6612 203.182 23.6777C207.137 21.5774 209.955 20.5272 211.637 20.5272L211.644 20.5298V20.5298ZM244.716 31.9571C244.65 31.9765 244.581 31.9885 244.512 31.9926C244.172 31.9926 244.001 31.8696 244 31.6248C244.001 30.5125 244.087 29.404 244.257 28.3057C244.449 27.1084 244.768 25.934 245.21 24.8026C245.638 23.6574 246.223 22.5743 246.95 21.585C247.722 20.5784 248.724 19.7641 249.876 19.208C251.028 18.6519 252.298 18.3695 253.582 18.3838C254.508 18.3333 255.432 18.52 256.263 18.9256C257.094 19.3311 257.803 19.9417 258.32 20.6972C259.395 22.2594 259.955 24.1079 259.923 25.9923C259.918 26.3375 259.806 26.673 259.602 26.9543C259.398 27.2356 259.111 27.4495 258.781 27.5675C256.914 28.305 255.008 28.943 253.071 29.4788C250.345 30.2651 247.629 31.081 244.922 31.9266C244.853 31.9303 244.784 31.9409 244.718 31.9584H244.716V31.9571ZM264.969 42.4154C260.876 44.8518 257.341 46.0694 254.365 46.0681C252.351 46.1107 250.372 45.5371 248.705 44.4269C247.155 43.4061 245.922 41.9855 245.143 40.3215C244.375 38.6519 243.985 36.8389 244 35.0073C258.866 30.4732 266.367 28.2055 266.504 28.2055C267.094 28.0865 267.622 27.7641 267.991 27.2967C268.36 26.8293 268.546 26.2478 268.515 25.6575C268.555 24.0121 268.162 22.3844 267.373 20.9318C266.653 19.6326 265.586 18.5495 264.287 17.7979C262.977 17.0439 261.557 16.4901 260.077 16.1554C258.47 15.7987 256.827 15.6242 255.18 15.6354C252.227 15.5907 249.299 16.1681 246.593 17.3286C244.206 18.3395 242.098 19.8902 240.44 21.8539C238.876 23.7522 237.669 25.9086 236.877 28.222C236.054 30.602 235.639 33.0993 235.649 35.6123C235.649 40.7743 237.069 44.6387 239.911 47.2096C242.479 49.5559 246.104 50.7278 250.787 50.7278C253.471 50.7007 256.113 50.0703 258.51 48.885C261.396 47.4749 264.161 45.8381 266.778 43.9906L266.032 42.6856L264.969 42.4154Z" fill="#9C9C9C"/>
</g>
<defs>
<clipPath id="clip0_23_5">
<rect width="269" height="52" fill="white"/>
</clipPath>
</defs>
</svg>
