<svg width="25" height="26" viewBox="0 0 25 26" fill="none" xmlns="http://www.w3.org/2000/svg">
<path d="M12.4998 2.1469C8.12477 2.1469 4.16602 5.60228 4.16602 10.947C4.16602 14.3599 6.71852 18.3742 11.8123 22.9989C12.0048 23.1701 12.2505 23.2642 12.5048 23.2642C12.759 23.2642 13.0048 23.1701 13.1973 22.9989C18.281 18.3742 20.8335 14.3599 20.8335 10.947C20.8335 5.60228 16.8748 2.1469 12.4998 2.1469ZM12.4998 12.8788C11.3535 12.8788 10.416 11.9129 10.416 10.7319C10.416 9.55091 11.3535 8.585 12.4998 8.585C13.646 8.585 14.5835 9.55091 14.5835 10.7319C14.5835 11.9129 13.646 12.8788 12.4998 12.8788Z" fill="url(#paint0_linear_63_416)"/>
<defs>
<linearGradient id="paint0_linear_63_416" x1="12.4998" y1="2.1469" x2="12.4998" y2="23.2642" gradientUnits="userSpaceOnUse">
<stop stop-color="#FFBF00"/>
<stop offset="1" stop-color="#F2A60C"/>
</linearGradient>
</defs>
</svg>
