<svg width="130" height="32" viewBox="0 0 130 32" fill="none" xmlns="http://www.w3.org/2000/svg">
<path d="M4.81765 13.196C5.43706 12.236 6.28588 11.456 7.36412 10.856C8.46529 10.256 9.71559 9.956 11.115 9.956C12.7438 9.956 14.2121 10.376 15.5197 11.216C16.8503 12.056 17.8941 13.256 18.6512 14.816C19.4312 16.352 19.8212 18.14 19.8212 20.18C19.8212 22.22 19.4312 24.032 18.6512 25.616C17.8941 27.176 16.8503 28.388 15.5197 29.252C14.2121 30.116 12.7438 30.548 11.115 30.548C9.69265 30.548 8.44235 30.26 7.36412 29.684C6.30882 29.084 5.46 28.316 4.81765 27.38V30.224H0V3.584H4.81765V13.196ZM14.9003 20.18C14.9003 18.98 14.6594 17.948 14.1776 17.084C13.7188 16.196 13.0994 15.524 12.3194 15.068C11.5666 14.6131 10.7111 14.377 9.84176 14.384C8.97 14.384 8.14412 14.624 7.36412 15.104C6.60706 15.56 5.98765 16.232 5.50588 17.12C5.04706 18.008 4.81765 19.052 4.81765 20.252C4.81765 21.452 5.04706 22.496 5.50588 23.384C5.98765 24.272 6.60706 24.956 7.36412 25.436C8.14412 25.892 8.97 26.12 9.84176 26.12C10.7365 26.12 11.5624 25.88 12.3194 25.4C13.0994 24.92 13.7188 24.236 14.1776 23.348C14.6594 22.46 14.9003 21.404 14.9003 20.18ZM25.7649 7.904C24.916 7.904 24.2049 7.628 23.6313 7.076C23.0807 6.5 22.8054 5.792 22.8054 4.952C22.8054 4.112 23.0807 3.416 23.6313 2.864C24.2049 2.288 24.916 2 25.7649 2C26.6137 2 27.3134 2.288 27.864 2.864C28.4375 3.416 28.7243 4.112 28.7243 4.952C28.7243 5.792 28.4375 6.5 27.864 7.076C27.3134 7.628 26.6137 7.904 25.7649 7.904ZM28.1393 10.28V30.224H23.3216V10.28H28.1393ZM44.1866 30.224L37.7172 21.728V30.224H32.8996V3.584H37.7172V18.74L44.1178 10.28H50.3807L41.9843 20.288L50.4496 30.224H44.1866ZM50.8004 20.252C50.8004 18.188 51.2018 16.388 52.0048 14.852C52.8077 13.292 53.9204 12.092 55.3427 11.252C56.7651 10.388 58.3939 9.956 60.2292 9.956C62.5921 9.956 64.5421 10.58 66.0792 11.828C67.6392 13.052 68.683 14.78 69.2107 17.012H64.0154C63.7402 16.148 63.2699 15.476 62.6046 14.996C61.9622 14.492 61.1593 14.24 60.1957 14.24C58.8193 14.24 57.7296 14.768 56.9266 15.824C56.1237 16.856 55.7222 18.332 55.7222 20.252C55.7222 22.148 56.1237 23.624 56.9266 24.68C57.7296 25.712 58.8193 26.228 60.1957 26.228C62.1457 26.228 63.419 25.316 64.0154 23.492H69.2116C68.684 25.652 67.6401 27.368 66.0801 28.64C64.5201 29.912 62.5701 30.548 60.2301 30.548C58.3949 30.548 56.766 30.128 55.3437 29.288C53.9326 28.4362 52.7767 27.1895 52.0057 25.688C51.2028 24.128 50.8013 22.316 50.8013 20.252H50.8004ZM76.6025 13.376C77.1932 12.3495 78.0217 11.4952 79.0113 10.892C80.0207 10.292 81.1678 9.992 82.4525 9.992V15.284H81.1793C79.6652 15.284 78.5181 15.656 77.7381 16.4C76.981 17.144 76.6025 18.44 76.6025 20.288V30.224H71.7849V10.28H76.6025V13.376ZM97.2247 27.38C96.6971 28.292 95.8368 29.06 94.6438 29.684C93.4509 30.284 92.1662 30.584 90.7897 30.584C89.5968 30.584 88.5185 30.332 87.555 29.828C86.5915 29.324 85.8344 28.628 85.2838 27.74C84.7332 26.852 84.4579 25.832 84.4579 24.68C84.4579 22.832 85.1118 21.32 86.4194 20.144C87.75 18.968 89.7344 18.38 92.3727 18.38H97.2247C97.1788 17.108 96.8232 16.1 96.1579 15.356C95.5156 14.588 94.6209 14.204 93.4738 14.204C92.4644 14.204 91.6271 14.492 90.9618 15.068C90.2965 15.62 89.8721 16.4 89.6885 17.408H84.8709C85.1003 15.968 85.5935 14.684 86.3506 13.556C87.1238 12.41 88.167 11.4923 89.3788 10.892C90.6406 10.244 92.0515 9.92 93.6115 9.92C95.2174 9.92 96.6627 10.268 97.9474 10.964C99.2235 11.6289 100.287 12.6669 101.01 13.952C101.744 15.248 102.111 16.772 102.111 18.524V30.224H97.2247V27.38ZM92.2006 26.516C93.0035 26.516 93.7835 26.336 94.5406 25.976C95.3206 25.616 95.9629 25.076 96.4676 24.356C96.9724 23.636 97.2247 22.784 97.2247 21.8V21.656H92.6479C91.5468 21.656 90.7209 21.884 90.1703 22.34C89.6426 22.796 89.3788 23.396 89.3788 24.14C89.3788 24.86 89.6197 25.436 90.1015 25.868C90.6062 26.3 91.3059 26.516 92.2006 26.516ZM112.271 14.42V30.224H107.385V14.42H105.217V10.28H107.385V9.272C107.385 6.824 108.05 5.024 109.381 3.872C110.711 2.72 112.719 2.18 115.403 2.252V6.5C114.233 6.476 113.418 6.68 112.959 7.112C112.501 7.544 112.271 8.324 112.271 9.452V10.28H118.532V5.348H123.384V10.28H127.651V14.42H123.384V24.068C123.384 24.74 123.533 25.232 123.832 25.544C124.153 25.832 124.681 25.976 125.415 25.976H127.651V30.224H124.623C120.563 30.224 118.532 28.16 118.532 24.032V14.42H112.271Z" fill="white"/>
</svg>
