<svg width="214" height="51" viewBox="0 0 214 51" fill="none" xmlns="http://www.w3.org/2000/svg">
<path d="M70.3077 50.32V0H57.3289L30.1914 38.828L25.6106 33.184C33.8004 31.96 38.3812 24.888 38.3812 17.34C38.3812 10.132 34.3557 4.08 28.9421 1.768C26.2352 0.612 22.2097 0 16.8655 0H0V50.32H12.5624V34.068H12.7012L24.5695 50.32H37.8259L42.3373 43.044H57.1901V50.32H70.3077V50.32ZM12.5624 25.296V11.288H17.5596C22.4874 11.288 25.8188 13.736 25.8188 18.088C25.8188 22.712 22.6956 25.296 17.4902 25.296H12.5624ZM57.1901 32.844H48.5838L57.0512 18.904H57.1901V32.844ZM122.949 50.32V0H110.386L110.942 31.824L90.9529 0H79.6398V50.32H92.2022L91.8552 19.584L111.566 50.32H122.949ZM160.83 50.32V39.032H144.866V30.396H160.344V19.108H144.866V11.288H160.83V0H132.304V50.32H160.83V50.32ZM212.973 50.32L194.859 25.092L211.863 0H198.121L183.615 22.644H183.476V0H170.358V50.32H183.476V28.56H183.615L197.635 50.32H212.973V50.32Z" fill="#9C9C9C"/>
</svg>
