<svg width="32" height="31" viewBox="0 0 32 31" fill="none" xmlns="http://www.w3.org/2000/svg">
<path d="M15.9997 10.1931C13.053 10.1931 10.6663 12.4328 10.6663 15.1979C10.6663 17.963 13.053 20.2027 15.9997 20.2027C18.9463 20.2027 21.333 17.963 21.333 15.1979C21.333 12.4328 18.9463 10.1931 15.9997 10.1931ZM27.9197 13.9467C27.6177 11.4095 26.4052 9.04397 24.4814 7.2387C22.5576 5.43343 20.0368 4.29568 17.333 4.01227V2.686C17.333 1.99785 16.733 1.43481 15.9997 1.43481C15.2663 1.43481 14.6663 1.99785 14.6663 2.686V4.01227C11.9625 4.29568 9.44172 5.43343 7.51793 7.2387C5.59414 9.04397 4.38169 11.4095 4.07967 13.9467H2.66634C1.93301 13.9467 1.33301 14.5098 1.33301 15.1979C1.33301 15.8861 1.93301 16.4491 2.66634 16.4491H4.07967C4.38169 18.9864 5.59414 21.3518 7.51793 23.1571C9.44172 24.9624 11.9625 26.1001 14.6663 26.3835V27.7098C14.6663 28.398 15.2663 28.961 15.9997 28.961C16.733 28.961 17.333 28.398 17.333 27.7098V26.3835C20.0368 26.1001 22.5576 24.9624 24.4814 23.1571C26.4052 21.3518 27.6177 18.9864 27.9197 16.4491H29.333C30.0663 16.4491 30.6663 15.8861 30.6663 15.1979C30.6663 14.5098 30.0663 13.9467 29.333 13.9467H27.9197ZM15.9997 23.9562C10.8397 23.9562 6.66634 20.04 6.66634 15.1979C6.66634 10.3558 10.8397 6.43957 15.9997 6.43957C21.1597 6.43957 25.333 10.3558 25.333 15.1979C25.333 20.04 21.1597 23.9562 15.9997 23.9562Z" fill="url(#paint0_linear_58_226)"/>
<defs>
<linearGradient id="paint0_linear_58_226" x1="15.9997" y1="1.43481" x2="15.9997" y2="28.961" gradientUnits="userSpaceOnUse">
<stop stop-color="#FFBF00"/>
<stop offset="1" stop-color="#F2A60C"/>
</linearGradient>
</defs>
</svg>
