<svg width="32" height="31" viewBox="0 0 32 31" fill="none" xmlns="http://www.w3.org/2000/svg">
<path d="M23.9997 10.3641H22.6663V7.86176C22.6663 4.40849 19.6797 1.60583 15.9997 1.60583C12.3197 1.60583 9.33301 4.40849 9.33301 7.86176V10.3641H7.99967C6.53301 10.3641 5.33301 11.4902 5.33301 12.8665V25.3784C5.33301 26.7547 6.53301 27.8807 7.99967 27.8807H23.9997C25.4663 27.8807 26.6663 26.7547 26.6663 25.3784V12.8665C26.6663 11.4902 25.4663 10.3641 23.9997 10.3641ZM15.9997 21.6248C14.533 21.6248 13.333 20.4987 13.333 19.1224C13.333 17.7461 14.533 16.6201 15.9997 16.6201C17.4663 16.6201 18.6663 17.7461 18.6663 19.1224C18.6663 20.4987 17.4663 21.6248 15.9997 21.6248ZM11.9997 10.3641V7.86176C11.9997 5.78479 13.7863 4.10821 15.9997 4.10821C18.213 4.10821 19.9997 5.78479 19.9997 7.86176V10.3641H11.9997Z" fill="url(#paint0_linear_58_228)"/>
<defs>
<linearGradient id="paint0_linear_58_228" x1="15.9997" y1="1.60583" x2="15.9997" y2="27.8807" gradientUnits="userSpaceOnUse">
<stop stop-color="#FFBF00"/>
<stop offset="1" stop-color="#F2A60C"/>
</linearGradient>
</defs>
</svg>
