<svg width="142" height="35" viewBox="0 0 142 35" fill="none" xmlns="http://www.w3.org/2000/svg">
<g clip-path="url(#clip0_23_10)">
<path d="M38.6105 31.4386C36.2533 31.4386 34.4463 31.0329 33.1889 30.2214C31.9535 29.3871 31.3365 28.1693 31.3365 26.5686C31.3365 25.7571 31.6063 25.0914 32.1445 24.5729C32.7061 24.0321 33.4247 23.7614 34.3001 23.7614C34.8163 23.7843 35.2089 23.9186 35.4787 24.1671C35.7485 24.3929 35.8834 24.6071 35.8834 24.81C35.8834 24.8321 35.7705 24.9114 35.5461 25.0464C35.3218 25.1821 35.1201 25.385 34.9398 25.655C34.7602 25.9264 34.67 26.2979 34.67 26.7714C34.67 27.8314 34.9852 28.6543 35.6136 29.2407C36.2647 29.8043 37.2636 30.0857 38.6105 30.0857C39.5314 30.0857 40.3393 29.9057 41.0359 29.545C41.7317 29.1843 42.2592 28.7107 42.6184 28.1243C42.9997 27.5157 43.1907 26.8843 43.1907 26.23C43.1907 25.4186 42.955 24.72 42.4835 24.1336C42.0256 23.5396 41.453 23.0449 40.8001 22.6793C40.1256 22.2736 39.2055 21.8107 38.0382 21.2921C36.6914 20.6836 35.6029 20.1314 34.7722 19.635C33.9375 19.1358 33.2146 18.4679 32.6493 17.6736C32.0664 16.8393 31.7746 15.8136 31.7746 14.5957C31.7746 12.6343 32.4363 11.1686 33.7612 10.1993C35.1088 9.22928 36.871 8.745 39.0486 8.745C40.7547 8.745 42.2365 9.10571 43.4939 9.82714C44.774 10.5486 45.4137 11.6086 45.4137 13.0057C45.4137 13.8179 45.1326 14.4943 44.5717 15.0357C44.0328 15.5543 43.3256 15.8136 42.4502 15.8136C41.9333 15.7907 41.5407 15.6664 41.2716 15.4414C41.0018 15.1936 40.8669 14.9679 40.8669 14.765C40.8669 14.7421 41.0131 14.6636 41.3049 14.5279C41.6195 14.3929 41.8886 14.19 42.1129 13.9193C42.36 13.6486 42.4835 13.2764 42.4835 12.8036C42.4835 11.9693 42.1584 11.315 41.5073 10.8414C40.8782 10.3679 40.0703 10.1314 39.0819 10.1314C37.7131 10.1314 36.6686 10.4586 35.9508 11.1121C35.2543 11.7436 34.9064 12.5329 34.9064 13.48C34.9064 14.2686 35.1194 14.9343 35.5461 15.475C35.9721 15.9936 36.6573 16.5121 37.6002 17.0307C38.4178 17.4632 39.2489 17.8694 40.0923 18.2486C41.5293 18.9021 42.6632 19.5 43.4939 20.0414C44.3492 20.5848 45.0738 21.3126 45.6154 22.1721C46.199 23.0507 46.4915 24.145 46.4915 25.4521C46.4915 26.58 46.1322 27.6057 45.4137 28.5307C44.7179 29.4321 43.763 30.1421 42.551 30.6607C41.361 31.1793 40.0475 31.4393 38.6105 31.4393V31.4386ZM55.6597 31.1686C54.1332 31.1686 52.9205 30.7057 52.0224 29.7814C51.1242 28.8571 50.6755 27.6393 50.6755 26.1286V19.8714C50.6755 19.2857 50.6528 18.8571 50.6081 18.5864C50.5861 18.3164 50.4512 18.0793 50.2034 17.8764C49.957 17.6736 49.5417 17.5721 48.958 17.5721C48.6882 17.5721 48.4866 17.5386 48.3517 17.4707C48.2168 17.3807 48.1501 17.1886 48.1501 16.8957C48.1501 16.76 48.1948 16.6364 48.285 16.5243C48.3744 16.3886 48.5093 16.31 48.6889 16.2871C50.1033 16.0836 51.3159 15.7907 52.3256 15.4071C52.6401 15.295 52.8978 15.2271 53.1002 15.2043H53.201C53.5603 15.2043 53.7406 15.4186 53.7406 15.8471V26.095C53.7406 27.1321 54.0658 27.9329 54.7168 28.4964C55.348 29.0303 56.1487 29.3182 56.9732 29.3079C58.0283 29.3079 58.9257 29.0486 59.667 28.53C60.4082 28.0114 60.9024 27.4929 61.1487 26.9743V19.8721C61.1487 19.2857 61.1267 18.8579 61.082 18.5864C61.0593 18.3164 60.9244 18.0793 60.6773 17.8764C60.4302 17.6736 60.0149 17.5721 59.4312 17.5721C59.1614 17.5721 58.9598 17.5386 58.8256 17.4707C58.6907 17.3807 58.6233 17.1886 58.6233 16.8957C58.6233 16.76 58.668 16.6364 58.7582 16.5243C58.8476 16.3886 58.9825 16.31 59.1622 16.2871C60.5765 16.0836 61.7892 15.7907 62.7995 15.4071C63.1133 15.295 63.3717 15.2271 63.5734 15.2043H63.6749C64.0342 15.2043 64.2138 15.4186 64.2138 15.8471V27.55C64.2138 28.8807 65.1006 29.5457 66.8742 29.5457C67.2554 29.5457 67.4464 29.76 67.4464 30.1886C67.4464 30.5036 67.2554 30.6957 66.8742 30.7629L61.4519 31.135C61.295 31.135 61.2048 31.0786 61.1821 30.9664C61.1608 30.8757 61.1487 30.7071 61.1487 30.4593V28.5643H61.082C60.5665 29.0513 60.0386 29.5248 59.4987 29.9843C59.0947 30.3 58.5672 30.5707 57.9154 30.7964C57.287 31.0443 56.5352 31.1679 55.6597 31.1679V31.1686ZM69.2889 30.8643C69.2104 30.8639 69.1331 30.8454 69.0629 30.8101C68.9927 30.7748 68.9315 30.7237 68.8842 30.6607C68.7947 30.5257 68.7493 30.3679 68.7493 30.1879C68.772 29.895 68.8395 29.725 68.9516 29.6807C69.0645 29.6129 69.2662 29.5786 69.558 29.5786C70.1416 29.5786 70.5569 29.4771 70.804 29.2743C71.0511 29.0714 71.186 28.8343 71.208 28.5643C71.2535 28.2929 71.2755 27.865 71.2755 27.2786V19.5336C71.2755 18.9479 71.2535 18.5193 71.208 18.2479C71.186 17.9779 71.0511 17.7407 70.804 17.5386C70.5569 17.3357 70.1416 17.2336 69.558 17.2336C69.2882 17.2336 69.0865 17.2 68.9523 17.1321C68.8174 17.0421 68.75 16.8507 68.75 16.5571C68.75 16.4221 68.7947 16.2979 68.8849 16.1857C68.9744 16.05 69.1092 15.9714 69.2889 15.9486C70.7479 15.7229 71.9493 15.43 72.8921 15.0693C73.2741 14.9564 73.5318 14.8886 73.6667 14.8664H73.7676C74.1268 14.8664 74.3065 15.0807 74.3065 15.5093V17.6057H74.4073C75.1932 16.8164 75.9906 16.1964 76.7986 15.7457C77.6072 15.2721 78.3364 15.0357 78.9875 15.0357C79.7287 15.0357 80.3123 15.3171 80.7391 15.8807C81.1878 16.4221 81.4121 17.0536 81.4121 17.775C81.4121 18.4064 81.2219 18.97 80.8399 19.4657C80.4579 19.9621 79.9304 20.21 79.2573 20.21C78.964 20.2152 78.6743 20.1454 78.4152 20.0071C78.1909 19.8714 78.0673 19.7593 78.0446 19.6693C78.0673 19.6243 78.1795 19.4886 78.3811 19.2629C78.5835 19.015 78.6843 18.7336 78.6843 18.4179C78.6843 18.0114 78.5721 17.685 78.3478 17.4371C78.1454 17.1886 77.865 17.065 77.5057 17.065C77.1244 17.065 76.6416 17.2564 76.058 17.64C75.4737 18.0007 74.9014 18.4629 74.3405 19.0264V27.2786C74.3405 27.865 74.3625 28.2929 74.4073 28.5643C74.4527 28.8343 74.5983 29.0714 74.8453 29.2743C75.0924 29.4771 75.5078 29.5786 76.0914 29.5786H76.2937C76.4734 29.5786 76.6076 29.6129 76.6977 29.68C76.7872 29.7479 76.8433 29.9171 76.866 30.1871C76.866 30.3679 76.8213 30.5257 76.7311 30.6607C76.6416 30.7964 76.5067 30.8643 76.3271 30.8643C75.1496 30.7999 73.9706 30.7658 72.7913 30.7621C71.781 30.7621 70.6137 30.7964 69.2889 30.8636V30.8643ZM121.592 31.1686C120.066 31.1686 118.708 30.8071 117.518 30.0857C116.328 29.3421 115.396 28.3721 114.722 27.1771C114.08 25.9948 113.745 24.6687 113.746 23.3214C113.746 21.6307 114.139 20.165 114.925 18.925C115.711 17.6621 116.71 16.7036 117.922 16.05C119.134 15.3736 120.358 15.0357 121.592 15.0357C123.12 15.0357 124.478 15.4071 125.668 16.1514C126.835 16.8491 127.79 17.855 128.429 19.06C129.094 20.2223 129.443 21.5404 129.439 22.8814C129.439 24.5729 129.035 26.05 128.227 27.3129C127.441 28.5529 126.442 29.5107 125.23 30.1871C124.018 30.8414 122.805 31.1686 121.592 31.1686V31.1686ZM121.592 29.9171C123.12 29.9171 124.231 29.2629 124.927 27.955C125.645 26.6479 126.004 24.9564 126.004 22.8821C126.004 20.9429 125.634 19.365 124.893 18.1464C124.175 16.9071 123.074 16.2871 121.592 16.2871C120.044 16.2871 118.921 16.93 118.225 18.215C117.529 19.5 117.181 21.1793 117.181 23.2543C117.181 25.1929 117.54 26.7943 118.259 28.0564C118.978 29.2971 120.089 29.9171 121.592 29.9171V29.9171ZM137.925 31.3371C136.825 31.3371 135.882 30.9314 135.096 30.12C134.311 29.3079 133.917 28.1471 133.917 26.6364V16.6929L131.964 16.7607C131.899 16.7613 131.834 16.7462 131.776 16.7168C131.717 16.6873 131.666 16.6444 131.628 16.5914C131.539 16.4619 131.492 16.3085 131.493 16.1514C131.493 15.9486 131.527 15.78 131.594 15.6443C131.684 15.4864 131.807 15.3964 131.964 15.3736C132.75 15.2164 133.356 14.9679 133.783 14.63C134.232 14.2686 134.558 13.8857 134.759 13.48C134.962 13.0514 135.209 12.4086 135.501 11.5514C135.613 11.2586 135.86 11.1121 136.241 11.1121C136.398 11.1121 136.556 11.1571 136.713 11.2479C136.87 11.315 136.948 11.4279 136.948 11.5857L136.713 15.4414L140.653 15.2043H140.721C141.012 15.2043 141.158 15.4186 141.158 15.8471C141.158 16.095 141.113 16.3321 141.023 16.5571C140.956 16.7607 140.866 16.8621 140.754 16.8621L136.982 16.7607V27.0421C136.982 27.7864 137.128 28.4064 137.42 28.9021C137.734 29.3986 138.239 29.6464 138.936 29.6464C139.631 29.6464 140.249 29.5221 140.787 29.2743C141.08 29.1614 141.259 29.105 141.326 29.105C141.484 29.105 141.607 29.1729 141.697 29.3079C141.787 29.4207 141.876 29.5793 141.967 29.7814C141.99 29.8346 142.002 29.8925 142 29.9507C142 30.0407 141.933 30.1421 141.798 30.255C141.147 30.6836 140.53 30.9657 139.946 31.1007C139.384 31.2579 138.711 31.3371 137.925 31.3371V31.3371ZM83.4939 30.6607C83.5833 30.7964 83.7182 30.8636 83.8978 30.8636C85.0642 30.7991 86.2321 30.7653 87.4003 30.7621C88.9048 30.7621 90.3077 30.7964 91.6099 30.8636C91.6839 30.8653 91.757 30.8474 91.822 30.8118C91.8871 30.7762 91.9417 30.7241 91.9805 30.6607C92.0699 30.525 92.1147 30.3679 92.1147 30.1871C92.0927 29.9171 92.0366 29.7479 91.9464 29.68C91.8789 29.6129 91.7448 29.5786 91.5424 29.5786H91.3401C90.5995 29.5786 90.072 29.5221 89.7575 29.4093C89.4429 29.2971 89.2299 29.0936 89.1178 28.8007C89.0056 28.485 88.9495 27.9779 88.9495 27.2793V16.7593H92.5194C92.5977 16.7589 92.6748 16.7404 92.7449 16.7052C92.8149 16.6701 92.876 16.6191 92.9234 16.5564C93.0355 16.4214 93.0916 16.2636 93.0916 16.0829C93.0689 15.8129 93.0015 15.6436 92.8893 15.5757C92.7998 15.4857 92.6536 15.44 92.4519 15.44H88.9495V13.4114C88.9495 12.3293 88.9942 11.3821 89.0837 10.57C89.1675 9.75467 89.4322 8.96868 89.8583 8.27C90.285 7.57143 90.9474 7.22214 91.8456 7.22214C91.9485 7.22214 92.0486 7.22786 92.1452 7.24C92.1326 6.86109 92.1573 6.48185 92.219 6.10786C92.1731 6.10658 92.1272 6.10587 92.0813 6.10571C90.1054 6.15071 88.5675 6.90571 87.4677 8.37214C86.3899 9.815 85.8511 11.6979 85.8511 14.02V15.4407H83.8304C83.5386 15.4407 83.3362 15.4743 83.2241 15.5421C83.1119 15.5871 83.0444 15.7679 83.0224 16.0829C83.0224 16.2636 83.0671 16.4214 83.1566 16.5564C83.2695 16.6921 83.415 16.76 83.5947 16.76H85.8511V27.2786C85.8511 27.8879 85.8283 28.3271 85.7836 28.5979C85.7616 28.8457 85.6267 29.0714 85.3796 29.2743C85.1325 29.4771 84.7172 29.5786 84.1336 29.5786C83.8418 29.5786 83.6394 29.6129 83.5272 29.68C83.4378 29.725 83.3817 29.8943 83.3589 30.1871C83.3589 30.3679 83.4037 30.5257 83.4939 30.6607V30.6607Z" fill="#9C9C9C"/>
<path fill-rule="evenodd" clip-rule="evenodd" d="M101.496 7.04629C101.495 7.54015 101.398 8.02909 101.21 8.48518C101.022 8.94127 100.746 9.35559 100.399 9.70447C100.051 10.0534 99.6388 10.33 99.1851 10.5185C98.7313 10.7071 98.2452 10.8039 97.7543 10.8034C96.7629 10.8042 95.8118 10.4088 95.1102 9.70426C94.4085 8.9997 94.0137 8.04363 94.0126 7.04629C94.0129 6.55233 94.11 6.06328 94.2983 5.60707C94.4865 5.15086 94.7622 4.73641 95.1097 4.38739C95.4571 4.03838 95.8695 3.76163 96.3233 3.57294C96.777 3.38426 97.2633 3.28734 97.7543 3.28772C98.2453 3.28725 98.7316 3.3841 99.1854 3.57275C99.6392 3.7614 100.052 4.03815 100.399 4.38718C100.747 4.73622 101.022 5.1507 101.21 5.60696C101.399 6.06321 101.496 6.5523 101.496 7.04629V7.04629ZM97.7543 8.92486C97.9997 8.92514 98.2428 8.87677 98.4697 8.7825C98.6966 8.68824 98.9028 8.54993 99.0765 8.37548C99.2503 8.20103 99.3881 7.99386 99.4823 7.76579C99.5764 7.53772 99.6249 7.29323 99.6251 7.04629C99.625 6.79928 99.5765 6.55472 99.4825 6.32657C99.3884 6.09842 99.2505 5.89116 99.0768 5.71663C98.903 5.5421 98.6968 5.40373 98.4699 5.30943C98.243 5.21512 97.9998 5.16672 97.7543 5.167C97.2586 5.16681 96.7832 5.36456 96.4324 5.7168C96.0816 6.06904 95.8842 6.54696 95.8834 7.04557C95.884 7.54431 96.0814 8.02242 96.4322 8.37481C96.783 8.72721 97.2585 8.92505 97.7543 8.92486V8.92486ZM96.1142 12.4384V30.5599C96.1142 30.762 96.171 30.9199 96.2831 31.0327C96.3953 31.1684 96.5522 31.2356 96.7546 31.2356C96.9562 31.2356 97.1245 31.1456 97.2594 30.9656C97.3943 30.8077 97.5178 30.5706 97.63 30.2549C97.7422 29.9391 97.843 29.6913 97.9332 29.5106H98.1015C99.5605 30.6156 101.289 31.1677 103.287 31.1677C104.635 31.1677 105.903 30.807 107.093 30.0856C108.283 29.3641 109.226 28.3834 109.922 27.1427C110.64 25.8806 110.999 24.4941 110.999 22.9834C110.999 21.4499 110.685 20.0863 110.056 18.8906C109.451 17.6734 108.609 16.7263 107.531 16.0499C106.453 15.3734 105.252 15.0356 103.928 15.0356C103.119 15.0356 102.3 15.2041 101.469 15.5427C100.661 15.8584 99.9311 16.3427 99.2801 16.997H99.1792V12.4999C98.1713 12.7631 97.1108 12.7418 96.1142 12.4384V12.4384ZM106.285 28.1577C105.454 29.3984 104.354 30.0184 102.985 30.0184C102.266 30.0184 101.627 29.8606 101.065 29.5449C100.526 29.2291 100.088 28.857 99.7515 28.4284C99.437 27.9777 99.2467 27.5713 99.1792 27.2113V18.2827C100.144 17.2449 101.334 16.7263 102.749 16.7263C104.343 16.7263 105.544 17.3577 106.352 18.6206C107.16 19.8606 107.564 21.3599 107.564 23.1184C107.564 25.2156 107.138 26.8956 106.285 28.1577V28.1577ZM9.01705 0.262002C9.25522 0.0912685 9.54039 -0.000488281 9.83284 -0.000488281C10.1253 -0.000488281 10.4105 0.0912685 10.6486 0.262002C16.7262 4.622 19.481 9.84843 19.655 17.3477C19.7352 20.9284 19.3923 24.207 18.3479 27.0391C17.2758 29.8734 15.3708 32.4913 12.5663 34.7027C12.3917 34.8392 12.1875 34.9324 11.9704 34.9746C11.7533 35.0168 11.5293 35.0068 11.3167 34.9456C10.4576 34.6977 10.3114 33.6749 9.83284 33.0377C9.3543 33.6749 9.20946 34.697 8.34894 34.9449C8.13645 35.006 7.91262 35.0159 7.69563 34.9737C7.47864 34.9315 7.27459 34.8384 7.10005 34.702C4.29555 32.4913 2.38991 29.8734 1.31852 27.0391C0.27482 24.207 -0.0688203 20.9284 0.0114097 17.3477C0.18465 9.84843 2.93945 4.62129 9.01705 0.262002ZM12.1595 31.4727C13.9146 29.8513 14.9725 28.0834 15.7194 26.0499C16.6602 23.5641 16.9314 20.817 16.8498 17.4134C16.7149 11.5656 15.3517 7.76057 11.2244 4.22772V14.562C12.8383 14.9791 13.5625 16.5691 13.5625 18.3191C13.5625 20.0706 12.8383 21.6606 11.2244 22.0777V30.5327C11.2244 30.5327 11.9742 31.2277 12.1595 31.4727ZM7.48203 31.4727C5.72691 29.8513 4.69386 28.0834 3.94623 26.0499C3.00619 23.5641 2.73497 20.817 2.81733 17.4134C2.95223 11.5777 4.30762 7.75629 8.41781 4.22772V14.562C6.80398 14.9791 6.07907 16.5691 6.07907 18.3191C6.07907 20.0706 6.80327 21.6606 8.41781 22.0777V30.5327C8.41781 30.5327 7.66095 31.2363 7.48203 31.4727ZM9.82077 16.4406C9.32509 16.4402 8.84955 16.6379 8.49872 16.9902C8.14789 17.3424 7.95048 17.8205 7.94992 18.3191C7.94992 19.3577 8.78772 20.1984 9.82077 20.1984C10.3165 20.1988 10.792 20.0011 11.1428 19.6488C11.4937 19.2966 11.6911 18.8185 11.6916 18.3199C11.6916 17.282 10.8538 16.4413 9.82077 16.4413V16.4406Z" fill="#9C9C9C"/>
</g>
<defs>
<clipPath id="clip0_23_10">
<rect width="142" height="35" fill="white"/>
</clipPath>
</defs>
</svg>
