<svg width="25" height="26" viewBox="0 0 25 26" fill="none" xmlns="http://www.w3.org/2000/svg">
<path d="M20.0311 16.5321L17.3849 16.2175C17.0739 16.1796 16.7587 16.2155 16.463 16.3224C16.1672 16.4294 15.8987 16.6046 15.6774 16.835L13.7599 18.8279C10.8032 17.2639 8.40003 14.7645 6.89613 11.6896L8.82238 9.68501C9.27113 9.21961 9.48988 8.56961 9.41613 7.90791L9.11488 5.17791C9.05567 4.64934 8.81165 4.16187 8.42926 3.80829C8.04686 3.4547 7.5528 3.25971 7.04113 3.26041H5.23988C4.06238 3.26041 3.08363 4.27961 3.15613 5.50291C3.70863 14.755 10.8224 22.1429 19.7086 22.7175C20.8849 22.7929 21.8649 21.775 21.8649 20.5504V18.6771C21.8675 18.1473 21.6816 17.6352 21.3431 17.2392C21.0047 16.8433 20.5374 16.5914 20.0311 16.5321Z" fill="url(#paint0_linear_63_418)"/>
<defs>
<linearGradient id="paint0_linear_63_418" x1="12.5086" y1="3.26041" x2="12.5086" y2="22.7214" gradientUnits="userSpaceOnUse">
<stop stop-color="#FFBF00"/>
<stop offset="1" stop-color="#F2A60C"/>
</linearGradient>
</defs>
</svg>
