<svg width="194" height="35" viewBox="0 0 194 35" fill="none" xmlns="http://www.w3.org/2000/svg">
<path d="M21.4231 33.9243C20.2618 33.9568 19.1112 33.6845 18.0776 33.1327C17.0496 32.5848 16.1728 31.7735 15.5299 30.7753C13.5056 32.7091 10.8831 33.826 8.13612 33.9243C3.20001 33.9243 0.524592 30.3584 1.42828 25.2464C2.11519 21.4025 5.18851 17.5505 6.04765 14.4581C4.3848 13.4205 1.91625 12.6978 0.759174 14.8184L0 14.3459C0.605755 12.0215 2.06966 10.4753 4.18486 10.4753C6.30005 10.4753 7.86393 11.7621 9.88014 10.5772H11.4886C10.6304 15.2075 8.46078 18.9114 7.3037 25.3946C6.59897 29.3681 7.90946 31.1737 10.1246 31.1737C11.761 30.9644 13.2663 30.1368 14.354 28.8483C13.4706 26.5873 13.0253 24.1672 13.0435 21.7268C13.0435 16.0959 15.5655 10.1603 19.7959 10.1603C21.9656 10.1603 23.574 11.7065 23.574 15.3743C23.574 19.0411 21.4053 24.7183 18.6388 28.2831C18.7883 29.1324 19.2228 29.9014 19.8662 30.4583C20.5096 31.0142 21.3222 31.323 22.1645 31.3312C26.1959 31.3312 29.0159 25.1342 29.0159 19.4024C29.0159 13.6706 26.5938 13.929 26.8017 11.9937C26.8204 11.7519 26.8849 11.5163 26.9914 11.3004C27.0979 11.0845 27.2443 10.8926 27.4223 10.7358C27.7826 10.4167 28.2517 10.2571 28.7268 10.29C29.9839 10.29 31.6368 11.9196 31.6368 18.5325C31.6368 26.9593 27.262 33.9243 21.4222 33.9243H21.4231ZM20.5106 13.0684C19.2535 13.0684 18.042 17.8192 17.8886 22.7274C17.8299 23.777 17.8481 24.8297 17.943 25.8764C19.8386 22.6658 20.9954 19.0431 21.3232 15.2909C21.3143 13.6233 21.0163 13.0674 20.5096 13.0674L20.5106 13.0684ZM39.9175 33.7112C39.3903 33.7671 38.8578 33.7035 38.3566 33.5249C37.8572 33.3474 37.4012 33.0586 37.0203 32.6787C36.6419 32.3009 36.3486 31.8408 36.1612 31.3312C35.9742 30.8238 35.8985 30.2794 35.9395 29.7377C35.9395 27.4689 38.8148 16.1608 38.8148 14.2996C38.8148 13.4205 38.6159 12.9017 37.8567 12.9017C37.0097 13.043 36.2208 13.4388 35.5871 14.0402V12.4384C36.9031 11.1969 38.6018 10.4844 40.3777 10.429C40.9082 10.3799 41.4425 10.4502 41.9446 10.6349C42.4454 10.8202 42.9007 11.1136 43.2798 11.4975C43.6579 11.8805 43.9509 12.3437 44.137 12.8564C44.3221 13.367 44.3973 13.9136 44.3547 14.4571C44.3547 16.7259 41.4814 27.9877 41.4814 29.8396C41.4814 30.7197 41.6793 31.2386 42.4395 31.2386C43.2751 31.0941 44.0584 30.7198 44.7081 30.1546V31.7008C43.3971 32.9507 41.6954 33.6649 39.9175 33.7112ZM43.4421 1.02842C43.8361 1.01607 44.228 1.09019 44.5913 1.24872C44.9536 1.40725 45.2792 1.64401 45.5425 1.94357C45.8068 2.24085 46.0045 2.59539 46.1212 2.98165C46.2379 3.36792 46.2708 3.77631 46.2175 4.17739C46.1203 5.03377 45.7258 5.82374 45.108 6.39887C44.4849 6.97925 43.6825 7.30829 42.8463 7.32637C42.4528 7.33933 42.0613 7.2642 41.6981 7.10607C41.3361 6.9488 41.0113 6.71173 40.7459 6.41122C40.4816 6.11394 40.284 5.7594 40.1673 5.37313C40.0505 4.98687 40.0176 4.57848 40.0709 4.17739C40.1682 3.32105 40.5627 2.53111 41.1805 1.95592C41.8037 1.37599 42.606 1.04733 43.4421 1.02945V1.02842ZM54.6328 28.8586C54.3804 30.2565 54.5338 31.2293 55.4919 31.2293C56.3305 31.095 57.1163 30.7196 57.7605 30.1453L57.8506 31.7008C56.5348 32.9427 54.8361 33.6556 53.06 33.7112C49.9322 33.7112 48.7217 31.3868 49.183 28.4972L52.2563 10.5772C53.2777 4.59431 52.9244 3.80681 49.7966 3.80681L49.9956 2.36254L59.4234 1.08401L54.6328 28.8575V28.8586ZM81.1455 28.8112C80.8921 30.2102 80.991 31.2386 82.0036 31.2386C82.8441 31.0752 83.6275 30.6819 84.2732 30.099V31.7008C82.9658 32.9566 81.2619 33.6717 79.4826 33.7112C78.5826 33.7791 77.6902 33.4982 76.9774 32.9227C76.2702 32.3529 75.7958 31.5264 75.6491 30.6086C74.8904 31.6365 73.9166 32.4711 72.8015 33.0493C71.6807 33.6313 70.4482 33.9431 69.1956 33.9614C63.2024 33.9614 60.6804 28.5436 61.8375 22.0325C62.9946 15.5225 68.39 10.2067 74.492 10.2067C75.9346 10.1752 77.3616 10.5222 78.6413 11.2155L78.7947 10.392C79.9884 4.01989 79.4371 3.80681 76.3093 3.80681L76.4627 2.36254L85.9351 1.08401L81.1445 28.8122L81.1455 28.8112ZM74.6455 12.5403C71.1653 12.5403 68.8522 16.7722 67.9386 21.9862C66.9805 27.4596 67.5862 31.2478 70.8585 31.2478C73.0727 31.2478 75.5947 28.4684 76.3539 24.2272L78.2167 13.4853C77.1396 12.8168 75.8988 12.4884 74.6455 12.5403V12.5403ZM97.0723 33.9696C90.0665 33.9696 88.1502 28.802 89.0094 23.8474L91.2958 10.5772C92.3539 4.58607 92.0015 3.76048 88.8738 3.76048L89.0717 2.31622L98.5273 1.08401L96.611 12.3365C98.0896 11.0229 99.9557 10.2746 101.899 10.2159C108.001 10.2159 110.866 15.5318 109.763 22.0418C108.661 28.5528 103.048 33.9706 97.0723 33.9706V33.9696ZM100.345 12.67C99.3283 12.6907 98.3437 13.0413 97.5286 13.6727C96.7195 14.2992 96.1229 15.177 95.8251 16.1793L94.4147 24.5145C93.5555 29.469 95.2738 31.4877 97.4434 31.4877C100.616 31.4877 102.586 27.8765 103.644 21.9399C104.584 16.624 103.726 12.6978 100.336 12.6978L100.345 12.67ZM119.318 25.0425C119.318 29.0161 121.18 31.1367 124.741 31.1367C126.549 31.1367 129.179 29.8499 130.843 28.1452L131.548 29.7933C130.349 31.0935 128.913 32.1321 127.324 32.8486C125.729 33.5679 124.012 33.9521 122.273 33.9789C116.986 33.9789 113.406 29.9508 113.406 24.4774C113.406 16.3739 119.959 10.2252 126.26 10.2252C130.093 10.2252 132.253 12.3921 132.253 14.9203C132.208 18.8465 128.574 23.2555 119.318 25.0425V25.0425ZM125.817 12.5959C122.943 12.5959 120.177 16.8834 119.417 23.0239C125.211 21.5786 127.679 17.5505 127.733 14.9667C127.724 13.5224 127.064 12.5959 125.808 12.5959H125.817V12.5959ZM152.818 33.7112C151.918 33.779 151.025 33.4981 150.312 32.9227C149.605 32.3527 149.131 31.5263 148.985 30.6086C148.254 31.636 147.303 32.4723 146.208 33.0514C145.107 33.634 143.892 33.9451 142.657 33.9603C136.764 33.9603 134.242 28.5436 135.426 22.0325C136.61 15.5225 141.916 10.2149 148.036 10.2149C149.333 10.2081 150.618 10.4731 151.814 10.9942H157.563L154.48 28.8112C154.227 30.2102 154.327 31.2386 155.34 31.2386C156.18 31.075 156.963 30.6816 157.608 30.099V31.7008C156.301 32.9566 154.597 33.6716 152.818 33.7112V33.7112ZM148.18 12.5403C144.799 12.5403 142.432 16.7722 141.527 21.9862C140.569 27.4596 141.229 31.2478 144.239 31.2478C146.553 31.2478 149.03 28.3583 149.735 24.2272L151.597 13.4853C150.58 12.8168 149.391 12.4871 148.189 12.5403H148.18V12.5403ZM175.199 16.309C173.834 16.309 173.481 15.2261 173.084 14.0865C172.948 13.5105 172.623 13.0021 172.164 12.6495C171.702 12.2939 171.136 12.1147 170.562 12.142C169.816 12.1009 169.081 12.348 168.5 12.8358C167.923 13.3187 167.542 14.0101 167.434 14.7721C167.28 16.1711 168.292 17.3559 170.208 19.0596L172.776 21.2265C173.73 21.9654 174.471 22.9624 174.918 24.1089C175.362 25.2515 175.494 26.4971 175.298 27.7097C174.647 31.5803 171.52 33.9603 167.334 33.9603C162.29 33.9603 159.072 30.9133 159.424 28.8483C159.507 28.3058 159.774 27.8086 160.18 27.4503C160.585 27.09 161.103 26.8903 161.64 26.8852C162.95 26.8852 163.447 27.9136 163.854 29.2559C164.115 30.028 164.617 30.6889 165.282 31.1377C165.95 31.5869 166.74 31.7976 167.533 31.7378C168.316 31.7765 169.086 31.5133 169.695 30.9987C170.298 30.4885 170.694 29.7609 170.805 28.9605C171.004 27.1075 169.901 25.969 167.832 24.0512L165.31 21.7824C164.423 21.0893 163.73 20.1629 163.302 19.0987C162.877 18.0398 162.734 16.8814 162.887 15.7449C163.339 13.263 165.599 10.1881 170.796 10.1881C174.828 10.1881 177.35 12.5125 177.124 14.3737C177.099 14.8871 176.886 15.3711 176.53 15.7274C176.174 16.0856 175.698 16.2936 175.199 16.309V16.309ZM193.648 13.0684H188.757L186.389 26.7925C185.883 29.6358 186.29 30.9236 187.799 30.9236C188.604 30.9236 189.869 30.4603 191.677 28.5528L191.776 30.5622C190.955 31.5584 189.937 32.3589 188.792 32.9093C187.641 33.4629 186.391 33.7548 185.124 33.7658C181.698 33.7658 179.981 31.2849 180.794 26.6906L183.162 13.0684H179.338L179.637 10.9478H183.496L184.509 4.80739H190.15L189.092 10.9468H193.982L193.648 13.0674V13.0684Z" fill="#9C9C9C"/>
</svg>
