<svg width="34" height="34" viewBox="0 0 34 34" fill="none" xmlns="http://www.w3.org/2000/svg">
<path d="M33.2889 8.7634C33.0968 8.03987 32.718 7.3795 32.1903 6.84843C31.6628 6.31736 31.0049 5.93422 30.2826 5.7374C27.6321 5.02197 17 5.02197 17 5.02197C17 5.02197 6.36791 5.02197 3.71591 5.7374C2.994 5.93457 2.3365 6.31785 1.80919 6.84888C1.28189 7.37991 0.903255 8.0401 0.711166 8.7634C0 11.4324 0 16.9999 0 16.9999C0 16.9999 0 22.5674 0.711166 25.2364C0.903247 25.96 1.28204 26.6203 1.80964 27.1513C2.33722 27.6824 2.99508 28.0655 3.71734 28.2624C6.36791 28.9778 17 28.9778 17 28.9778C17 28.9778 27.6321 28.9778 30.2841 28.2624C31.0064 28.0657 31.6643 27.6826 32.1919 27.1515C32.7196 26.6204 33.0983 25.96 33.2903 25.2364C34 22.5674 34 16.9999 34 16.9999C34 16.9999 34 11.4324 33.2889 8.7634ZM13.5221 22.0545V11.9453L22.4089 16.9999L13.5221 22.0545Z" fill="url(#paint0_linear_63_424)"/>
<defs>
<linearGradient id="paint0_linear_63_424" x1="17" y1="5.02197" x2="17" y2="28.9778" gradientUnits="userSpaceOnUse">
<stop stop-color="#FFBF00"/>
<stop offset="1" stop-color="#F2A60C"/>
</linearGradient>
</defs>
</svg>
