<svg width="32" height="31" fill="none" xmlns="http://www.w3.org/2000/svg"><path d="M22.666 21.441c-1.8 0-2.933.526-3.933 1.001-.867.413-1.573.751-2.733.751-1.2 0-1.867-.313-2.733-.75-1-.476-2.094-1.002-3.934-1.002-1.84 0-2.933.526-3.933 1.001-.574.276-1.08.513-1.694.65-.6.126-1.04.576-1.04 1.14v.125c0 .75.747 1.288 1.52 1.138.987-.188 1.734-.538 2.414-.863.867-.413 1.56-.75 2.733-.75 1.174 0 1.867.312 2.733.75 1 .475 2.094 1 3.934 1 1.84 0 2.933-.525 3.933-1 .867-.413 1.573-.75 2.733-.75 1.2 0 1.867.312 2.734.75.693.325 1.44.688 2.44.876.18.033.366.028.544-.014.178-.041.344-.12.486-.228.143-.108.258-.245.338-.4.08-.155.123-.325.125-.497v-.113c0-.575-.453-1.026-1.053-1.15-.614-.126-1.107-.364-1.68-.651-1-.488-2.134-1.014-3.934-1.014Zm0-5.567c-1.8 0-2.933.537-3.933 1-.867.4-1.573.751-2.733.751-1.2 0-1.867-.313-2.733-.75-1-.476-2.094-1.002-3.934-1.002-1.84 0-2.933.539-3.933 1.002-.574.262-1.08.512-1.707.65-.587.125-1.026.576-1.026 1.139v.125c0 .173.04.343.12.5.08.156.195.293.338.402.143.11.31.187.489.228.179.04.365.044.546.008 1-.187 1.747-.55 2.44-.863.867-.438 1.533-.75 2.733-.75 1.2 0 1.867.312 2.733.75 1 .476 2.094 1.001 3.934 1.001 1.84 0 2.933-.538 3.933-1.001.867-.438 1.534-.75 2.733-.75 1.2 0 1.867.312 2.734.75.693.325 1.44.688 2.44.876.181.033.368.028.547-.014.179-.043.346-.122.488-.232.143-.11.258-.248.337-.404.08-.157.12-.328.121-.501v-.113c0-.575-.453-1.026-1.053-1.15-.614-.126-1.107-.364-1.68-.651-1-.476-2.134-1.002-3.934-1.002ZM26.6 5.764c-1-.476-2.107-1.001-3.934-1.001-1.826 0-2.933.525-3.933 1-.867.401-1.573.752-2.733.752-1.2 0-1.867-.313-2.733-.751-1-.463-2.094-1.001-3.934-1.001-1.84 0-2.933.525-3.933 1-.574.276-1.08.514-1.694.652-.6.125-1.04.575-1.04 1.138v.088c0 .75.72 1.3 1.494 1.15 1-.187 1.747-.55 2.44-.863.867-.412 1.56-.75 2.733-.75 1.174 0 1.867.313 2.733.75 1 .476 2.094 1.001 3.934 1.001 1.84 0 2.933-.538 3.933-1 .867-.4 1.573-.751 2.733-.751 1.2 0 1.867.313 2.734.75.693.326 1.44.689 2.44.876.181.033.368.029.547-.014.179-.042.346-.121.488-.231a1.19 1.19 0 0 0 .337-.405c.08-.157.12-.328.121-.5V7.54c0-.576-.453-1.026-1.053-1.152-.614-.125-1.107-.35-1.68-.625Zm-3.934 4.542c-1.8 0-2.933.538-3.933 1-.867.439-1.533.751-2.733.751-1.2 0-1.867-.312-2.733-.75-1-.476-2.094-1.001-3.934-1.001-1.84 0-2.933.538-3.933 1-.574.288-1.067.526-1.68.651-.6.125-1.054.576-1.054 1.151v.113c0 .173.042.344.121.5.08.156.195.293.338.403.143.109.31.186.489.227.179.041.365.044.546.009 1-.188 1.747-.551 2.44-.864.867-.4 1.573-.75 2.733-.75 1.16 0 1.867.312 2.733.75 1 .476 2.094 1.001 3.934 1.001 1.84 0 2.933-.538 3.933-1 .867-.401 1.573-.752 2.733-.752 1.2 0 1.867.313 2.734.751.693.326 1.44.688 2.44.876.18.033.366.028.544-.013.178-.042.344-.12.486-.229.143-.108.258-.245.338-.4.08-.155.123-.324.125-.497v-.112c0-.576-.453-1.026-1.053-1.151-.614-.125-1.107-.363-1.68-.65-1-.489-2.134-1.014-3.934-1.014Z" fill="url(#a)"/><defs><linearGradient id="a" x1="16" y1="4.763" x2="16" y2="25.633" gradientUnits="userSpaceOnUse"><stop stop-color="#FFBF00"/><stop offset="1" stop-color="#F2A60C"/></linearGradient></defs></svg>