<svg width="30" height="32" fill="none" xmlns="http://www.w3.org/2000/svg"><g clip-path="url(#a)"><path d="M23.75 9.333h-1.025L20.6 3.093a2.663 2.663 0 0 0-.916-1.273 2.404 2.404 0 0 0-1.434-.487h-2c-.688 0-1.25.6-1.25 1.334C15 3.4 15.563 4 16.25 4h2l1.825 5.333h-6.012L13.613 8h.112c.688 0 1.25-.6 1.25-1.333 0-.734-.563-1.334-1.25-1.334H10c-.688 0-1.25.6-1.25 1.334C8.75 7.4 9.313 8 10 8h.938l2.274 6.667h-.837c-.55-2.974-2.887-5.174-5.813-5.32C3.063 9.16 0 12.267 0 16c0 3.733 2.75 6.667 6.25 6.667 3.075 0 5.563-2.254 6.125-5.334h5.25c.55 2.974 2.887 5.174 5.813 5.32 3.5.174 6.562-2.92 6.562-6.666 0-3.72-2.75-6.654-6.25-6.654Zm-16.25 8h2.275c-.525 1.64-2 2.774-3.775 2.654-1.862-.12-3.413-1.8-3.5-3.8C2.413 13.853 4.088 12 6.25 12c1.662 0 3.025 1.107 3.525 2.667H7.5c-.688 0-1.25.6-1.25 1.333s.563 1.333 1.25 1.333Zm10.125-2.666h-1.75L14.963 12h3.787a6.52 6.52 0 0 0-1.125 2.667ZM23.6 20c-1.925-.08-3.55-1.827-3.6-3.893-.025-1.28.488-2.4 1.313-3.147l.774 2.267c.238.693.95 1.053 1.6.8.65-.254.988-1.014.75-1.707l-.787-2.307.013-.013c.5-.018 1 .072 1.468.265.467.194.893.486 1.252.86.358.374.642.821.834 1.316A4.19 4.19 0 0 1 27.5 16c0 2.293-1.725 4.08-3.9 4Zm-9.85 6.667h-5l7.5 4V28h5l-7.5-4v2.667Z" fill="url(#b)"/></g><defs><linearGradient id="b" x1="15" y1="1.333" x2="15" y2="30.667" gradientUnits="userSpaceOnUse"><stop stop-color="#FFBF00"/><stop offset="1" stop-color="#F2A60C"/></linearGradient><clipPath id="a"><path fill="#fff" d="M0 0h30v32H0z"/></clipPath></defs></svg>