<svg width="25" height="25" fill="none" xmlns="http://www.w3.org/2000/svg"><path d="M20.834 4.166H4.166A2.08 2.08 0 0 0 2.094 6.25l-.01 12.5a2.09 2.09 0 0 0 2.082 2.084h16.668a2.09 2.09 0 0 0 2.082-2.084V6.25a2.09 2.09 0 0 0-2.082-2.084Zm-.418 4.428-7.363 4.605a1.054 1.054 0 0 1-1.105 0L4.584 8.594a.885.885 0 1 1 .937-1.5l6.98 4.365 6.978-4.365a.885.885 0 1 1 .938 1.5Z" fill="url(#a)"/><defs><linearGradient id="a" x1="12.5" y1="4.166" x2="12.5" y2="20.834" gradientUnits="userSpaceOnUse"><stop stop-color="#FFBF00"/><stop offset="1" stop-color="#F2A60C"/></linearGradient></defs></svg>