<svg width="20" height="20" fill="none" xmlns="http://www.w3.org/2000/svg"><path d="M1.666 5a.835.835 0 0 0 .833-.833v-.833a.838.838 0 0 1 .834-.834h.833A.835.835 0 0 0 5 1.667a.836.836 0 0 0-.833-.833h-.833a2.496 2.496 0 0 0-2.5 2.5v.833c0 .458.375.833.833.833Zm2.5 12.5h-.833a.836.836 0 0 1-.834-.832v-.834A.835.835 0 0 0 1.666 15a.836.836 0 0 0-.833.833v.834c0 1.383 1.116 2.5 2.5 2.5h.833A.836.836 0 0 0 5 18.334a.835.835 0 0 0-.833-.833V17.5ZM16.666.834h-.832a.836.836 0 0 0-.834.833c0 .458.375.833.834.833h.832c.459 0 .834.375.834.834v.833c0 .458.375.833.834.833a.835.835 0 0 0 .832-.833v-.833c0-1.384-1.116-2.5-2.5-2.5ZM18.334 15a.836.836 0 0 0-.834.834v.834a.836.836 0 0 1-.834.833h-.832a.836.836 0 0 0-.834.833c0 .459.375.834.834.834h.832c1.384 0 2.5-1.117 2.5-2.5v-.834a.835.835 0 0 0-.832-.833V15Zm-2.503-2.607V7.609c0-.6-.316-1.15-.832-1.442l-4.168-2.4a1.647 1.647 0 0 0-1.666 0l-4.166 2.39c-.518.3-.834.85-.834 1.45v4.784c0 .6.316 1.15.834 1.441l4.166 2.4a1.647 1.647 0 0 0 1.666 0L15 13.835a1.65 1.65 0 0 0 .832-1.441Zm-6.666 1.916-3.334-1.916v-3.86l3.334 1.942v3.834Zm.834-5.275-3.3-1.925 3.3-1.9 3.3 1.9-3.3 1.925Zm4.166 3.358-3.334 1.917v-3.834l3.334-1.941v3.858Z" fill="#999"/></svg>