<svg width="25" height="25" fill="none" xmlns="http://www.w3.org/2000/svg"><path d="M12.5 2.084C6.771 2.084 2.084 6.77 2.084 12.5S6.771 22.916 12.5 22.916 22.916 18.23 22.916 12.5 18.23 2.084 12.5 2.084Zm3.698 14.375-4.25-2.615a1.025 1.025 0 0 1-.5-.885V8.072a.802.802 0 0 1 .792-.78.788.788 0 0 1 .781.78v4.636l4 2.406c.375.23.5.718.27 1.095a.8.8 0 0 1-1.093.25Z" fill="url(#a)"/><defs><linearGradient id="a" x1="12.5" y1="2.084" x2="12.5" y2="22.916" gradientUnits="userSpaceOnUse"><stop stop-color="#FFBF00"/><stop offset="1" stop-color="#F2A60C"/></linearGradient></defs></svg>