<svg width="25" height="26" fill="none" xmlns="http://www.w3.org/2000/svg"><path d="M12.5 2.147c-4.375 0-8.334 3.455-8.334 8.8 0 3.413 2.553 7.427 7.646 12.052a1.042 1.042 0 0 0 1.385 0c5.084-4.625 7.636-8.64 7.636-12.052 0-5.345-3.958-8.8-8.333-8.8Zm0 10.732c-1.146 0-2.084-.966-2.084-2.147 0-1.181.938-2.147 2.084-2.147 1.146 0 2.084.966 2.084 2.147 0 1.18-.938 2.147-2.084 2.147Z" fill="url(#a)"/><defs><linearGradient id="a" x1="12.5" y1="2.147" x2="12.5" y2="23.264" gradientUnits="userSpaceOnUse"><stop stop-color="#FFBF00"/><stop offset="1" stop-color="#F2A60C"/></linearGradient></defs></svg>