<svg width="130" height="32" fill="none" xmlns="http://www.w3.org/2000/svg"><path d="M4.818 13.196c.62-.96 1.468-1.74 2.546-2.34 1.101-.6 2.352-.9 3.751-.9 1.629 0 3.097.42 4.405 1.26 1.33.84 2.374 2.04 3.131 3.6.78 1.536 1.17 3.324 1.17 5.364s-.39 3.852-1.17 5.436c-.757 1.56-1.8 2.772-3.131 3.636-1.308.864-2.776 1.296-4.405 1.296-1.422 0-2.673-.288-3.75-.864-1.056-.6-1.905-1.368-2.547-2.304v2.844H0V3.584h4.818v9.612ZM14.9 20.18c0-1.2-.24-2.232-.722-3.096-.46-.888-1.079-1.56-1.859-2.016a4.713 4.713 0 0 0-2.477-.684c-.872 0-1.698.24-2.478.72-.757.456-1.376 1.128-1.858 2.016-.459.888-.688 1.932-.688 3.132 0 1.2.23 2.244.688 3.132.482.888 1.101 1.572 1.858 2.052.78.456 1.606.684 2.478.684.894 0 1.72-.24 2.477-.72.78-.48 1.4-1.164 1.859-2.052.481-.888.722-1.944.722-3.168ZM25.765 7.904c-.849 0-1.56-.276-2.134-.828-.55-.576-.826-1.284-.826-2.124 0-.84.276-1.536.826-2.088.574-.576 1.285-.864 2.134-.864s1.548.288 2.099.864c.573.552.86 1.248.86 2.088 0 .84-.287 1.548-.86 2.124-.55.552-1.25.828-2.1.828Zm2.374 2.376v19.944h-4.817V10.28h4.817Zm16.048 19.944-6.47-8.496v8.496H32.9V3.584h4.817V18.74l6.4-8.46h6.264l-8.397 10.008 8.466 9.936h-6.263Zm6.613-9.972c0-2.064.402-3.864 1.205-5.4.803-1.56 1.915-2.76 3.338-3.6 1.422-.864 3.05-1.296 4.886-1.296 2.363 0 4.313.624 5.85 1.872 1.56 1.224 2.604 2.952 3.132 5.184h-5.196c-.275-.864-.745-1.536-1.41-2.016-.643-.504-1.446-.756-2.41-.756-1.376 0-2.465.528-3.268 1.584-.803 1.032-1.205 2.508-1.205 4.428 0 1.896.402 3.372 1.205 4.428.803 1.032 1.892 1.548 3.269 1.548 1.95 0 3.223-.912 3.82-2.736h5.196c-.528 2.16-1.572 3.876-3.132 5.148-1.56 1.272-3.51 1.908-5.85 1.908-1.835 0-3.464-.42-4.886-1.26a8.988 8.988 0 0 1-3.338-3.6c-.803-1.56-1.205-3.372-1.205-5.436Zm25.803-6.876a6.977 6.977 0 0 1 2.408-2.484c1.01-.6 2.157-.9 3.442-.9v5.292h-1.274c-1.514 0-2.66.372-3.44 1.116-.758.744-1.136 2.04-1.136 3.888v9.936h-4.818V10.28h4.818v3.096ZM97.225 27.38c-.528.912-1.388 1.68-2.581 2.304-1.193.6-2.478.9-3.854.9-1.193 0-2.272-.252-3.235-.756a5.749 5.749 0 0 1-2.271-2.088c-.55-.888-.826-1.908-.826-3.06 0-1.848.654-3.36 1.961-4.536 1.331-1.176 3.315-1.764 5.954-1.764h4.852c-.046-1.272-.402-2.28-1.067-3.024-.642-.768-1.537-1.152-2.684-1.152-1.01 0-1.847.288-2.512.864-.666.552-1.09 1.332-1.273 2.34H84.87c.23-1.44.723-2.724 1.48-3.852a7.883 7.883 0 0 1 3.028-2.664c1.262-.648 2.672-.972 4.233-.972 1.605 0 3.05.348 4.335 1.044a7.506 7.506 0 0 1 3.063 2.988c.734 1.296 1.101 2.82 1.101 4.572v11.7h-4.886V27.38Zm-5.024-.864c.803 0 1.583-.18 2.34-.54.78-.36 1.422-.9 1.927-1.62.504-.72.757-1.572.757-2.556v-.144h-4.577c-1.101 0-1.927.228-2.478.684-.527.456-.791 1.056-.791 1.8 0 .72.24 1.296.722 1.728.505.432 1.205.648 2.1.648Zm20.07-12.096v15.804h-4.886V14.42h-2.168v-4.14h2.168V9.272c0-2.448.665-4.248 1.996-5.4 1.33-1.152 3.338-1.692 6.022-1.62V6.5c-1.17-.024-1.985.18-2.444.612-.458.432-.688 1.212-.688 2.34v.828h6.261V5.348h4.852v4.932h4.267v4.14h-4.267v9.648c0 .672.149 1.164.448 1.476.321.288.849.432 1.583.432h2.236v4.248h-3.028c-4.06 0-6.091-2.064-6.091-6.192V14.42h-6.261Z" fill="#fff"/></svg>