<svg width="32" height="31" fill="none" xmlns="http://www.w3.org/2000/svg"><path d="M16 10.193c-2.947 0-5.334 2.24-5.334 5.005 0 2.765 2.387 5.005 5.334 5.005 2.946 0 5.333-2.24 5.333-5.005 0-2.765-2.387-5.005-5.333-5.005Zm11.92 3.754c-.302-2.537-1.515-4.903-3.439-6.708-1.923-1.806-4.444-2.943-7.148-3.227V2.686c0-.688-.6-1.251-1.333-1.251-.734 0-1.334.563-1.334 1.251v1.326c-2.704.284-5.224 1.421-7.148 3.227-1.924 1.805-3.136 4.17-3.438 6.708H2.666c-.733 0-1.333.563-1.333 1.25 0 .69.6 1.252 1.333 1.252H4.08c.302 2.537 1.514 4.903 3.438 6.708 1.924 1.805 4.445 2.943 7.148 3.227v1.326c0 .688.6 1.251 1.334 1.251.733 0 1.333-.563 1.333-1.251v-1.326c2.704-.284 5.225-1.422 7.148-3.227 1.924-1.805 3.137-4.17 3.439-6.708h1.413c.733 0 1.333-.563 1.333-1.251s-.6-1.251-1.333-1.251H27.92ZM16 23.957c-5.16 0-9.334-3.917-9.334-8.76 0-4.841 4.174-8.757 9.334-8.757 5.16 0 9.333 3.916 9.333 8.758 0 4.842-4.173 8.758-9.333 8.758Z" fill="url(#a)"/><defs><linearGradient id="a" x1="16" y1="1.435" x2="16" y2="28.961" gradientUnits="userSpaceOnUse"><stop stop-color="#FFBF00"/><stop offset="1" stop-color="#F2A60C"/></linearGradient></defs></svg>