<svg width="32" height="31" fill="none" xmlns="http://www.w3.org/2000/svg"><path d="M24 10.364h-1.334V7.862c0-3.454-2.986-6.256-6.666-6.256S9.333 4.408 9.333 7.862v2.502H8c-1.467 0-2.667 1.126-2.667 2.502v12.512c0 1.377 1.2 2.503 2.667 2.503h16c1.466 0 2.666-1.126 2.666-2.503V12.867c0-1.377-1.2-2.503-2.666-2.503Zm-8 11.26c-1.467 0-2.667-1.125-2.667-2.502 0-1.376 1.2-2.502 2.667-2.502 1.466 0 2.666 1.126 2.666 2.502 0 1.377-1.2 2.503-2.666 2.503Zm-4-11.26V7.862c0-2.077 1.786-3.754 4-3.754 2.213 0 4 1.677 4 3.754v2.502h-8Z" fill="url(#a)"/><defs><linearGradient id="a" x1="16" y1="1.606" x2="16" y2="27.881" gradientUnits="userSpaceOnUse"><stop stop-color="#FFBF00"/><stop offset="1" stop-color="#F2A60C"/></linearGradient></defs></svg>