<svg width="32" height="31" viewBox="0 0 32 31" fill="none" xmlns="http://www.w3.org/2000/svg">
<path d="M8.06701 10.4266C6.32138 12.0649 5.33851 14.2855 5.33352 16.6023C5.32852 18.9191 6.3018 21.1433 8.04034 22.7883C10.0003 18.5343 13.4937 14.9809 17.8537 12.8664C14.0904 15.8544 11.5501 19.9764 10.667 24.5274C14.1337 26.0664 18.4003 25.5034 21.267 22.8133C25.2537 19.0723 26.3737 8.87512 26.6137 6.07247C26.622 5.98341 26.6095 5.89372 26.5769 5.80971C26.5444 5.7257 26.4926 5.6494 26.4252 5.58618C26.3579 5.52297 26.2765 5.47438 26.187 5.44382C26.0975 5.41327 26.0019 5.4015 25.907 5.40934C22.9203 5.63455 12.0537 6.68555 8.06701 10.4266Z" fill="url(#paint0_linear_58_230)"/>
<defs>
<linearGradient id="paint0_linear_58_230" x1="15.9748" y1="5.40698" x2="15.9748" y2="25.3713" gradientUnits="userSpaceOnUse">
<stop stop-color="#FFBF00"/>
<stop offset="1" stop-color="#F2A60C"/>
</linearGradient>
</defs>
</svg>
