<svg width="25" height="26" fill="none" xmlns="http://www.w3.org/2000/svg"><path d="m20.031 16.532-2.646-.314a1.998 1.998 0 0 0-.922.104 2.063 2.063 0 0 0-.786.513l-1.917 1.993c-2.957-1.564-5.36-4.063-6.864-7.138l1.926-2.005a2.202 2.202 0 0 0 .594-1.777l-.301-2.73a2.198 2.198 0 0 0-.686-1.37 2.04 2.04 0 0 0-1.388-.548H5.24c-1.178 0-2.156 1.02-2.084 2.243.553 9.252 7.666 16.64 16.553 17.215 1.176.075 2.156-.943 2.156-2.168v-1.873a2.198 2.198 0 0 0-.522-1.438 2.04 2.04 0 0 0-1.312-.707Z" fill="url(#a)"/><defs><linearGradient id="a" x1="12.509" y1="3.26" x2="12.509" y2="22.721" gradientUnits="userSpaceOnUse"><stop stop-color="#FFBF00"/><stop offset="1" stop-color="#F2A60C"/></linearGradient></defs></svg>