<svg width="32" height="31" viewBox="0 0 32 31" fill="none" xmlns="http://www.w3.org/2000/svg">
<path d="M25.9468 12.8665C25.8152 13.0488 25.7373 13.2606 25.7209 13.4803C25.7046 13.7 25.7503 13.9198 25.8534 14.1176C26.1841 14.8421 26.4174 15.6028 26.5468 16.3823C26.89 18.3969 26.569 20.4618 25.6268 22.3004C25.5123 22.5021 25.3412 22.6705 25.132 22.7874C24.9229 22.9043 24.6836 22.9652 24.4401 22.9635H7.57342C7.32858 22.964 7.08833 22.9012 6.87901 22.782C6.66969 22.6628 6.49938 22.4919 6.38675 22.2879C5.53326 20.6631 5.16561 18.8515 5.323 17.0461C5.48039 15.2407 6.15691 13.5093 7.28046 12.0363C8.40401 10.5633 9.93245 9.40406 11.7029 8.6821C13.4733 7.96015 15.4193 7.70255 17.3334 7.93678C18.3019 8.0436 19.2493 8.27954 20.1467 8.63745C20.3575 8.73425 20.5918 8.77713 20.826 8.76175C21.0601 8.74638 21.2857 8.67328 21.4801 8.54986C21.6826 8.42467 21.8449 8.25003 21.9495 8.04473C22.0541 7.83943 22.097 7.61125 22.0737 7.38474C22.0504 7.15824 21.9617 6.94199 21.8172 6.75927C21.6726 6.57655 21.4777 6.43428 21.2534 6.34778C18.6777 5.31137 15.8194 5.06292 13.0846 5.63773C10.3498 6.21253 7.87761 7.58137 6.01909 9.54979C4.16058 11.5182 3.01029 13.9861 2.73162 16.603C2.45295 19.2198 3.06008 21.8525 4.46675 24.1271C4.69943 24.5053 5.03354 24.8198 5.43586 25.0393C5.83818 25.2588 6.29472 25.3757 6.76009 25.3783H25.2268C25.6966 25.3801 26.1587 25.2653 26.5661 25.0455C26.9735 24.8258 27.3118 24.509 27.5468 24.1271C28.5766 22.4523 29.1788 20.5764 29.306 18.6464C29.4332 16.7165 29.0821 14.7852 28.2801 13.0041C28.1785 12.8011 28.0207 12.6274 27.823 12.5013C27.6254 12.3752 27.3953 12.3012 27.1568 12.2872C26.9183 12.2731 26.6802 12.3194 26.4673 12.4214C26.2544 12.5233 26.0746 12.677 25.9468 12.8665Z" fill="url(#paint0_linear_58_232)"/>
<path d="M14.1199 16.107C13.6195 16.5765 13.3384 17.2134 13.3384 17.8774C13.3384 18.2062 13.4074 18.5318 13.5415 18.8356C13.6756 19.1393 13.8721 19.4153 14.1199 19.6478C14.3676 19.8803 14.6618 20.0648 14.9855 20.1906C15.3092 20.3164 15.6561 20.3812 16.0065 20.3812C16.7142 20.3812 17.3928 20.1174 17.8932 19.6478L25.4399 9.02527L14.1199 16.107Z" fill="url(#paint1_linear_58_232)"/>
<defs>
<linearGradient id="paint0_linear_58_232" x1="15.9985" y1="5.33521" x2="15.9985" y2="25.3783" gradientUnits="userSpaceOnUse">
<stop stop-color="#FFBF00"/>
<stop offset="1" stop-color="#F2A60C"/>
</linearGradient>
<linearGradient id="paint1_linear_58_232" x1="19.3891" y1="9.02527" x2="19.3891" y2="20.3812" gradientUnits="userSpaceOnUse">
<stop stop-color="#FFBF00"/>
<stop offset="1" stop-color="#F2A60C"/>
</linearGradient>
</defs>
</svg>
