<svg width="131" height="35" fill="none" xmlns="http://www.w3.org/2000/svg"><path d="M10.662 20.942v4.684c0 2.343-1.048 3.187-2.714 3.187s-2.713-.844-2.713-3.187V7.917c0-2.342 1.048-3.233 2.714-3.233 1.665 0 2.713.891 2.713 3.233v3.514h4.95V8.245C15.611 2.998 12.945 0 7.805 0 2.665 0 0 2.998 0 8.245V25.3c0 5.247 2.665 8.246 7.806 8.246 5.14 0 7.805-3 7.805-8.246v-4.357h-4.95ZM30.413.375l5.33 32.795h-5.283l-.905-5.95h-6.424l-.905 5.95H17.42L22.751.375h7.662Zm-4.141 5.809-2.475 16.585h5.045L26.367 6.183h-.094l-.001.001ZM54.449 33.17h-5.33c-.286-.844-.477-1.36-.477-4.03v-5.153c0-3.045-1.047-4.17-3.426-4.17h-1.81V33.17h-5.234V.375h7.9c5.426 0 7.758 2.483 7.758 7.543v2.577c0 3.372-1.095 5.528-3.427 6.605 2.618 1.17 3.474 3.607 3.474 7.028v5.06c0 1.593.048 2.763.571 3.982h.001ZM45.93 5.06h-2.522v10.073h2.046c1.952 0 3.141-.843 3.141-3.467V8.433c0-2.342-.808-3.373-2.665-3.373ZM70.405.374l5.33 32.795h-5.282l-.904-5.95h-6.426l-.904 5.95h-4.807L62.742.375h7.664-.001Zm-4.14 5.809-2.476 16.585h5.046L66.36 6.183h-.096v.001ZM80.578.374h-5.283l5.14 32.796h7.806L93.382.375h-4.807l-3.95 26.75h-.096L80.579.375Zm25.356 0 5.331 32.796h-5.283l-.904-5.95h-6.426l-.904 5.95h-4.807L98.272.375h7.663Zm-4.141 5.81L99.32 22.769h5.045L101.89 6.183h-.096v.001Zm23.828 26.986H131V.375h-4.665v19.63h-.095L120.957.374h-6.568V33.17h4.712V9.416h.095l6.426 23.754Z" fill="#9C9C9C"/></svg>