<svg width="132" height="35" fill="none" xmlns="http://www.w3.org/2000/svg"><path fill-rule="evenodd" clip-rule="evenodd" d="M19.995 15.122h2.36c2.438 0 3.755 2.954 2.167 4.868l-2.31 2.783a6.682 6.682 0 0 0 2.36 4.177 6.292 6.292 0 0 0 4.483 1.413 6.355 6.355 0 0 0 4.22-2.104 6.754 6.754 0 0 0 1.715-4.502c0-.291.055-.579.163-.847.108-.269.265-.513.464-.718.2-.206.435-.368.695-.48.26-.11.539-.167.82-.167.568 0 1.112.233 1.514.648.401.415.627.977.628 1.564a11.3 11.3 0 0 1-2.021 6.464 10.832 10.832 0 0 1-3.766 3.35 10.446 10.446 0 0 1-4.822 1.237 10.438 10.438 0 0 1-4.845-1.142 10.81 10.81 0 0 1-3.825-3.276 10.812 10.812 0 0 1-3.826 3.276 10.438 10.438 0 0 1-4.845 1.142c-1.679-.016-3.33-.44-4.822-1.237a10.831 10.831 0 0 1-3.766-3.35 11.3 11.3 0 0 1-2.022-6.464c0-.291.055-.579.163-.848.107-.268.265-.512.464-.717.199-.206.435-.369.695-.48.26-.11.539-.167.82-.167.568 0 1.112.233 1.514.648.402.415.628.977.629 1.564a6.753 6.753 0 0 0 1.707 4.513 6.397 6.397 0 0 0 3.043 1.9 6.23 6.23 0 0 0 3.555-.06 6.414 6.414 0 0 0 2.98-2.004 6.745 6.745 0 0 0 1.494-3.334l-2.311-2.782c-1.588-1.914-.271-4.867 2.17-4.867h2.358v-.001Z" fill="#9C9C9C"/><path d="M29.99 9.226c.563 0 1.12-.114 1.64-.336.52-.222.992-.548 1.39-.958.398-.41.713-.899.929-1.435a4.552 4.552 0 0 0 0-3.387 4.437 4.437 0 0 0-.93-1.435 4.275 4.275 0 0 0-1.39-.959 4.161 4.161 0 0 0-3.277 0c-.52.223-.992.548-1.39.959-.397.41-.713.898-.928 1.435a4.555 4.555 0 0 0 0 3.386c.215.537.53 1.025.928 1.435.398.411.87.737 1.39.959a4.16 4.16 0 0 0 1.639.336Zm-19.993 0c.563 0 1.12-.114 1.639-.336.52-.222.992-.548 1.39-.959.397-.41.713-.898.928-1.435a4.553 4.553 0 0 0 0-3.386 4.438 4.438 0 0 0-.928-1.435 4.275 4.275 0 0 0-1.39-.959 4.161 4.161 0 0 0-3.278 0c-.52.222-.992.548-1.39.959-.398.41-.713.898-.929 1.435a4.553 4.553 0 0 0 0 3.387c.216.536.531 1.024.93 1.435.397.41.87.736 1.39.958.519.222 1.076.336 1.638.336ZM68.992 1.46c.66 0 1.201.195 1.625.584.424.39.636.901.636 1.535v21.84c0 .657-.2 1.18-.6 1.57-.4.39-.931.584-1.59.584-.66 0-1.19-.195-1.591-.584-.4-.39-.601-.913-.601-1.57v-.914a5.601 5.601 0 0 1-2.262 2.337c-.966.56-2.073.84-3.322.84-1.485 0-2.815-.39-3.993-1.168-1.155-.78-2.062-1.875-2.722-3.288-.636-1.435-.954-3.079-.954-4.93 0-1.85.318-3.469.954-4.857.66-1.387 1.567-2.459 2.722-3.214 1.154-.754 2.485-1.132 3.993-1.132 1.249 0 2.356.268 3.323.804a5.482 5.482 0 0 1 2.225 2.264V3.506c0-.608.189-1.095.566-1.46.4-.39.93-.585 1.59-.585Zm-6.539 22.68c1.414 0 2.498-.499 3.252-1.498.777-.998 1.166-2.423 1.166-4.272 0-1.85-.39-3.263-1.166-4.236-.754-1-1.826-1.499-3.216-1.499-1.414 0-2.51.487-3.287 1.462-.777.974-1.166 2.374-1.166 4.2 0 1.85.389 3.286 1.166 4.31.777 1.023 1.861 1.533 3.251 1.533Zm21.225 3.542c-1.766 0-3.321-.377-4.664-1.131-1.32-.755-2.345-1.838-3.075-3.25-.73-1.413-1.096-3.057-1.096-4.931 0-1.875.365-3.507 1.096-4.894.73-1.413 1.755-2.496 3.074-3.25 1.344-.755 2.899-1.133 4.665-1.133 1.768 0 3.31.377 4.63 1.132a7.47 7.47 0 0 1 3.075 3.25c.73 1.388 1.096 3.02 1.096 4.895 0 1.875-.366 3.518-1.096 4.93a7.47 7.47 0 0 1-3.075 3.25c-1.32.755-2.862 1.132-4.629 1.132Zm-.034-3.542c1.437 0 2.532-.487 3.286-1.46.754-.975 1.131-2.411 1.131-4.31 0-1.875-.377-3.3-1.131-4.273-.754-.999-1.838-1.498-3.252-1.498-1.412 0-2.51.5-3.286 1.498-.754.974-1.131 2.398-1.131 4.273 0 1.899.377 3.335 1.131 4.31.754.973 1.838 1.46 3.252 1.46Zm27.113-14.974c.66 0 1.189.195 1.59.584.401.39.601.913.601 1.57v14.426c0 2.8-.754 4.919-2.262 6.356-1.508 1.436-3.734 2.154-6.68 2.154-2.568 0-4.712-.498-6.431-1.497-.872-.536-1.308-1.18-1.308-1.936 0-.535.118-.96.354-1.278.258-.316.588-.475.989-.475.212 0 .471.05.778.147.305.121.624.256.953.401.738.325 1.493.605 2.262.84.684.195 1.461.293 2.333.293 3.086 0 4.63-1.558 4.63-4.676v-2.337a5.612 5.612 0 0 1-2.262 2.338c-.99.536-2.12.803-3.393.803-1.508 0-2.851-.365-4.03-1.095-1.153-.755-2.06-1.802-2.72-3.14-.66-1.34-.99-2.886-.99-4.64 0-1.752.319-3.299.954-4.638.66-1.364 1.58-2.41 2.757-3.14 1.178-.755 2.521-1.133 4.029-1.133 1.273 0 2.403.28 3.393.84a5.385 5.385 0 0 1 2.262 2.3v-.949c0-.632.2-1.144.601-1.534.4-.389.93-.584 1.59-.584Zm-6.679 14.17c1.413 0 2.508-.475 3.286-1.423.801-.95 1.202-2.253 1.202-3.909 0-1.68-.401-2.994-1.202-3.944-.778-.95-1.873-1.424-3.286-1.424-1.391 0-2.487.475-3.287 1.424-.801.95-1.202 2.264-1.202 3.944 0 1.656.4 2.958 1.202 3.909.8.95 1.896 1.424 3.287 1.424Zm19.701 4.346c-2.568 0-4.641-.523-6.22-1.57-.754-.462-1.131-1.12-1.131-1.972 0-.487.13-.877.388-1.168.26-.317.578-.476.955-.476.4 0 .954.196 1.661.585a15.65 15.65 0 0 0 2.05.84c.636.195 1.437.292 2.403.292.99 0 1.755-.17 2.297-.512.566-.34.848-.815.848-1.424 0-.413-.117-.742-.354-.985-.211-.244-.612-.463-1.201-.658-.566-.22-1.437-.462-2.615-.73-2.097-.439-3.605-1.06-4.524-1.863-.895-.803-1.342-1.911-1.342-3.323 0-1.072.305-2.034.918-2.886.613-.876 1.449-1.546 2.509-2.009 1.084-.486 2.309-.73 3.675-.73.99 0 1.945.134 2.864.402a8.23 8.23 0 0 1 2.474 1.095c.754.487 1.13 1.132 1.13 1.936 0 .487-.129.901-.389 1.242-.258.316-.577.475-.954.475-.259 0-.518-.05-.777-.146-.31-.163-.617-.334-.919-.512-.683-.365-1.272-.632-1.767-.803-.495-.195-1.108-.292-1.838-.292-.872 0-1.567.183-2.085.547-.495.365-.742.865-.742 1.498 0 .608.259 1.071.778 1.387.518.317 1.519.634 3.004.95 1.578.342 2.815.73 3.71 1.17.896.437 1.531.985 1.908 1.642.401.658.601 1.498.601 2.52 0 1.656-.671 2.983-2.014 3.981-1.32.998-3.087 1.497-5.301 1.497Z" fill="#9C9C9C"/></svg>