<svg width="140" height="32" fill="none" xmlns="http://www.w3.org/2000/svg"><path d="M2.295 25.324c-.694 0-1.255-.212-1.685-.637-.407-.424-.61-.978-.61-1.662V2.335C0 1.65.191 1.12.574.742.98.365 1.53.177 2.223.177h12.585c1.458 0 2.187.613 2.187 1.839 0 1.203-.73 1.804-2.187 1.804H4.553v6.79h9.538c1.458 0 2.187.614 2.187 1.84 0 1.202-.73 1.804-2.187 1.804H4.553v8.77c0 .685-.203 1.239-.61 1.663-.405.425-.955.637-1.648.637Zm21.277 0c-.645 0-1.183-.177-1.613-.53-.407-.378-.61-.909-.61-1.592V2.087c0-.684.203-1.203.61-1.556.43-.354.968-.531 1.613-.531s1.183.177 1.614.53c.43.354.645.873.645 1.557v21.115c0 .683-.215 1.214-.645 1.591-.43.354-.969.53-1.614.53Zm20.756-4.952c.406 0 .729.154.968.46.263.306.394.72.394 1.238 0 .73-.442 1.344-1.326 1.84-.813.447-1.733.813-2.76 1.096-1.029.259-2.009.389-2.94.389-2.821 0-5.056-.802-6.706-2.405-1.649-1.604-2.473-3.797-2.473-6.58 0-1.768.358-3.335 1.075-4.703.717-1.368 1.721-2.429 3.012-3.183 1.314-.755 2.796-1.132 4.446-1.132 1.577 0 2.952.342 4.123 1.026 1.171.683 2.08 1.65 2.725 2.9s.968 2.723.968 4.42c0 1.015-.454 1.522-1.363 1.522H33.895c.143 1.627.609 2.83 1.398 3.607.789.755 1.936 1.132 3.442 1.132.765 0 1.434-.094 2.008-.283a19.234 19.234 0 0 0 2.007-.778c.717-.377 1.243-.566 1.578-.566Zm-6.204-9.868c-1.219 0-2.199.378-2.94 1.132-.717.755-1.147 1.84-1.29 3.254h8.103c-.048-1.438-.407-2.523-1.076-3.254-.67-.754-1.602-1.132-2.797-1.132Zm26.227 11.354c.43.424.646.907.646 1.45 0 .518-.204.99-.61 1.415-.406.4-.884.6-1.434.6-.598 0-1.111-.247-1.542-.742l-5.055-5.517-5.055 5.517c-.455.472-.968.707-1.542.707-.526 0-.992-.2-1.398-.6-.407-.402-.61-.861-.61-1.38 0-.543.215-1.026.646-1.45l5.234-5.624-4.948-5.305c-.43-.425-.645-.908-.645-1.45 0-.543.203-1.002.61-1.38.406-.4.872-.6 1.398-.6.573 0 1.087.235 1.541.706l4.769 5.164 4.768-5.164c.455-.471.969-.707 1.542-.707.55 0 1.016.2 1.398.601.407.378.61.837.61 1.38 0 .542-.215 1.025-.645 1.45l-4.948 5.305 5.27 5.624Zm19.836-9.62c1.458.4 2.581 1.131 3.37 2.192.813 1.061 1.22 2.358 1.22 3.89 0 2.123-.778 3.785-2.331 4.988-1.53 1.202-3.645 1.804-6.346 1.804h-9.25c-.694 0-1.243-.19-1.65-.566-.382-.378-.574-.908-.574-1.592V2.334c0-.683.192-1.214.574-1.591.406-.378.956-.566 1.65-.566h8.89c2.63 0 4.685.578 6.167 1.733 1.506 1.132 2.259 2.723 2.259 4.775 0 1.32-.359 2.464-1.076 3.43-.693.967-1.661 1.675-2.904 2.123h.001ZM73.144 10.68h5.844c3.18 0 4.769-1.167 4.769-3.501 0-1.18-.395-2.052-1.184-2.617-.788-.566-1.983-.85-3.585-.85h-5.844v6.968Zm6.454 10.894c1.673 0 2.892-.295 3.657-.884.765-.59 1.147-1.51 1.147-2.76 0-1.249-.394-2.18-1.183-2.793-.765-.613-1.972-.92-3.621-.92h-6.454v7.357h6.454Zm15.331 3.749c-.645 0-1.183-.177-1.613-.53-.406-.378-.61-.909-.61-1.592V2.087c0-.684.204-1.203.61-1.556.43-.354.968-.531 1.613-.531.646 0 1.184.177 1.614.53.43.354.645.873.645 1.557v21.115c0 .683-.215 1.214-.645 1.591-.43.354-.968.53-1.614.53Zm14.876.07c-1.792 0-3.37-.365-4.732-1.096-1.339-.73-2.379-1.78-3.12-3.148-.741-1.367-1.111-2.959-1.111-4.774 0-1.816.37-3.396 1.111-4.74.741-1.367 1.781-2.417 3.12-3.148 1.362-.73 2.94-1.096 4.732-1.096 1.793 0 3.359.365 4.697 1.096a7.388 7.388 0 0 1 3.119 3.148c.741 1.344 1.112 2.924 1.112 4.74 0 1.815-.371 3.407-1.112 4.774a7.388 7.388 0 0 1-3.119 3.148c-1.338.731-2.904 1.097-4.697 1.097Zm-.036-3.43c1.458 0 2.57-.472 3.335-1.415.765-.943 1.147-2.334 1.147-4.173 0-1.816-.382-3.195-1.147-4.139-.765-.966-1.865-1.45-3.299-1.45s-2.545.484-3.334 1.45c-.765.944-1.147 2.323-1.147 4.139 0 1.839.382 3.23 1.147 4.173.765.943 1.864 1.415 3.298 1.415Zm27.507-14.501c.669 0 1.207.188 1.613.566.407.377.61.884.61 1.52V23.52c0 2.712-.765 4.763-2.295 6.154-1.529 1.391-3.788 2.087-6.776 2.087-2.605 0-4.781-.483-6.525-1.45-.885-.519-1.327-1.144-1.327-1.875 0-.518.119-.931.359-1.238.262-.306.597-.46 1.003-.46.216 0 .478.048.789.142.311.118.634.248.968.39.861.353 1.626.624 2.295.813.693.188 1.482.283 2.366.283 3.131 0 4.697-1.51 4.697-4.528v-2.263c-.526.966-1.291 1.721-2.295 2.263-1.003.52-2.151.778-3.442.778-1.529 0-2.892-.353-4.087-1.06-1.171-.732-2.091-1.745-2.761-3.042-.669-1.297-1.003-2.794-1.003-4.492s.322-3.195.968-4.492c.669-1.32 1.601-2.334 2.796-3.042 1.195-.73 2.558-1.096 4.087-1.096 1.291 0 2.439.271 3.442.813a5.336 5.336 0 0 1 2.295 2.229v-.92c0-.613.203-1.108.61-1.485.406-.378.944-.566 1.613-.566ZM130.5 21.186c1.434 0 2.545-.46 3.334-1.38.813-.92 1.219-2.18 1.219-3.784 0-1.627-.406-2.9-1.219-3.82-.789-.92-1.9-1.38-3.334-1.38-1.411 0-2.522.46-3.335 1.38-.812.92-1.219 2.193-1.219 3.82 0 1.603.407 2.865 1.219 3.784.813.92 1.924 1.38 3.335 1.38Z" fill="#9C9C9C"/></svg>