<svg width="146" height="52" fill="none" xmlns="http://www.w3.org/2000/svg"><path d="m26.167 11.215-4.834 29.43h-6.945l1.764-10.626h-7.48l-1.73 10.626H0l4.873-29.43h6.906L9.707 23.641h7.481l2.074-12.426h6.906-.001Zm14.243 29.43.232-6.417h-6.408l-1.88 6.417h-7.328l9.86-29.43h12.66l.155 29.43h-7.29Zm-1.572-22.277-3.03 10.383h5.026l.421-10.382h-2.417Zm38.66-7.153-4.834 29.43h-6.945l-4.833-16.103-2.609 16.104h-6.946l4.873-29.43h7.136l4.758 15.042 2.493-15.043h6.907Zm16.203 0c3.35 0 5.742.9 7.173 2.698 1.05 1.362 1.573 3.066 1.573 5.11 0 .736-.063 1.512-.19 2.33l-1.497 9.115c-.512 3.078-1.766 5.545-3.76 7.398-1.996 1.854-4.579 2.78-7.752 2.78H78.084l4.873-29.43h10.744Zm-2.418 6.378h-2.494l-2.724 16.675h3.645c1.202 0 2.136-.341 2.8-1.021.692-.71 1.164-1.854 1.418-3.433l1.115-6.704c.096-.541.148-1.088.153-1.636 0-2.59-1.303-3.882-3.913-3.882Zm31.727 23.052h-19.261l4.875-29.43h19.26l-1.074 6.378h-12.354l-.883 5.518h10.206l-1.074 6.375h-10.206l-.767 4.783h12.354l-1.075 6.376h-.001Zm21.915 0H127.43l4.873-29.43h6.906l-3.798 23.054H146l-1.075 6.376Zm-67.754 5.238h66.743L141.829 52H75.086l2.085-6.117ZM7.3 0h73l-2.086 6.117h-73L7.3 0Z" fill="#9C9C9C"/></svg>