<svg width="269" height="52" fill="none" xmlns="http://www.w3.org/2000/svg"><g clip-path="url(#a)"><path fill-rule="evenodd" clip-rule="evenodd" d="M18.022 45.815a1.143 1.143 0 0 1-.886-.437 3.06 3.06 0 0 1-.582-1.305 17.403 17.403 0 0 1-.323-1.826c-.09-.79-.136-1.586-.138-2.38-.026-1.748-.02-3.496.019-5.244a121.3 121.3 0 0 0 .033-2.514V12.131c0-.984.007-1.732.018-2.246.012-.514.052-1.095.118-1.743.039-.482.124-.958.257-1.424.13-.359.302-.701.511-1.022.194-.336.476-.614.819-.804.398-.196.808-.368 1.227-.52.54-.197 1.1-.337 1.67-.419A50.085 50.085 0 0 1 23 3.684V1.84l-.582-.57H1.826l-.546.57v1.575c3.456.202 5.388 1.163 5.797 2.883.238 1.452.352 2.92.341 4.39v30.6a30.14 30.14 0 0 1-.205 4.76 2.185 2.185 0 0 1-.409.67c-.263.31-.542.606-.834.888-.232.22-.454.45-.665.688v1.173c17.572 0 28.448.111 32.63.336l1.467-4.86-.92-.638a208.588 208.588 0 0 1-20.459 1.51h-.001Zm32.663-14.01a.961.961 0 0 1-.205.033c-.34 0-.51-.122-.51-.368 0-1.111.086-2.22.255-3.32.192-1.196.511-2.37.955-3.5a13.225 13.225 0 0 1 1.742-3.218 8.153 8.153 0 0 1 2.927-2.377 8.32 8.32 0 0 1 3.705-.825c.926-.05 1.85.137 2.681.542a5.321 5.321 0 0 1 2.057 1.772 9.075 9.075 0 0 1 1.604 5.295 1.676 1.676 0 0 1-.32.963 1.73 1.73 0 0 1-.823.612 56.461 56.461 0 0 1-5.711 1.911 389.604 389.604 0 0 0-8.148 2.448.97.97 0 0 0-.21.032Zm20.252 10.457c-4.093 2.435-7.627 3.653-10.602 3.653a9.831 9.831 0 0 1-5.66-1.643 9.994 9.994 0 0 1-3.564-4.105 12.466 12.466 0 0 1-1.142-5.312c14.866-4.535 22.367-6.804 22.503-6.804a2.526 2.526 0 0 0 1.487-.908 2.439 2.439 0 0 0 .524-1.639 9.412 9.412 0 0 0-1.142-4.726 8.25 8.25 0 0 0-3.085-3.134 15.115 15.115 0 0 0-4.211-1.642 21.904 21.904 0 0 0-4.895-.52 20.992 20.992 0 0 0-8.59 1.693 16.445 16.445 0 0 0-6.154 4.525 20.462 20.462 0 0 0-3.563 6.369 22.374 22.374 0 0 0-1.228 7.39c0 5.162 1.422 9.027 4.262 11.597 2.569 2.347 6.195 3.518 10.877 3.518a17.833 17.833 0 0 0 7.723-1.843 59.858 59.858 0 0 0 8.268-4.895L72 42.532l-1.06-.27h-.002ZM116.86 6.921a9.866 9.866 0 0 0-5.013-5.33 21.53 21.53 0 0 0-9.035-1.608 27.032 27.032 0 0 0-6.699.805A20.603 20.603 0 0 0 90.35 3.2a11.703 11.703 0 0 0-4.142 4.376 12.865 12.865 0 0 0-1.535 6.35 9.586 9.586 0 0 0 1.142 4.54 12.717 12.717 0 0 0 2.865 3.672 34.748 34.748 0 0 0 4.022 3 47.087 47.087 0 0 0 4.4 2.547 76.534 76.534 0 0 1 4.193 2.28 18.813 18.813 0 0 1 3.188 2.228c2.522 2.302 3.784 4.491 3.784 6.57a7.945 7.945 0 0 1-.691 3.207 8.094 8.094 0 0 1-1.934 2.674 8.633 8.633 0 0 1-2.884 1.92 8.774 8.774 0 0 1-3.423.645 9.154 9.154 0 0 1-3.986-.79 8.983 8.983 0 0 1-3.225-2.428 10.916 10.916 0 0 1-2.778-7.342l-1.329-.47-6.784 7.474a15.801 15.801 0 0 0 6.104 5.146 18.198 18.198 0 0 0 8.012 1.795 25.808 25.808 0 0 0 7.467-1.142 27.81 27.81 0 0 0 6.888-3.1 16.492 16.492 0 0 0 5.062-4.96 11.473 11.473 0 0 0 1.961-6.386 9.729 9.729 0 0 0-.647-3.569 11.354 11.354 0 0 0-1.671-2.95 14.795 14.795 0 0 0-2.848-2.63 36.522 36.522 0 0 0-3.631-2.366 124.93 124.93 0 0 0-4.568-2.43 59.081 59.081 0 0 1-3.171-1.626 38.031 38.031 0 0 1-2.868-1.818 14.29 14.29 0 0 1-2.59-2.232 10.3 10.3 0 0 1-1.637-2.616 7.833 7.833 0 0 1-.681-3.234 6.689 6.689 0 0 1 .486-2.661 6.795 6.795 0 0 1 1.505-2.266 7.04 7.04 0 0 1 2.419-1.548 7.15 7.15 0 0 1 2.849-.462 8.316 8.316 0 0 1 3.516.617 8.17 8.17 0 0 1 2.911 2.03 11.618 11.618 0 0 1 2.915 6.402l1.194.368 6.65-5.095Zm33.157 12.854a6.838 6.838 0 0 0-2.557-2.514 12.462 12.462 0 0 0-3.376-1.29 17.623 17.623 0 0 0-3.869-.402 20.564 20.564 0 0 0-7.28 1.224 15.865 15.865 0 0 0-5.386 3.235 17.543 17.543 0 0 0-3.546 4.74 22.24 22.24 0 0 0-2.03 5.615 28.801 28.801 0 0 0-.613 6c-.007 1.711.24 3.416.732 5.057a14.973 14.973 0 0 0 2.199 4.442 10.112 10.112 0 0 0 4.008 3.217 13.65 13.65 0 0 0 5.847 1.19c6.387 0 12.388-2.76 18.002-8.278l-.682-.973-.852-.2c-4.159 3.15-8.001 4.725-11.524 4.725a8.284 8.284 0 0 1-3.801-.855 7.641 7.641 0 0 1-2.715-2.21 13.35 13.35 0 0 1-1.722-3.118 16.44 16.44 0 0 1-.971-3.434 20.804 20.804 0 0 1-.273-3.352c.007-1.427.133-2.85.375-4.257a28.353 28.353 0 0 1 1.193-4.609 9.602 9.602 0 0 1 2.421-3.888 5.234 5.234 0 0 1 1.718-1.134 5.323 5.323 0 0 1 2.033-.39 5.098 5.098 0 0 1 2.678.593 4.97 4.97 0 0 1 1.958 1.887 11.577 11.577 0 0 1 1.5 6.1l1.194.47 6.444-3.753a8.36 8.36 0 0 0-1.105-3.838Zm12.497 9.971c.173-1.316.475-2.612.904-3.87.391-1.224.948-2.39 1.652-3.47a7.853 7.853 0 0 1 2.644-2.43 7.388 7.388 0 0 1 3.767-.954 7.642 7.642 0 0 1 4.074 1.055 7.019 7.019 0 0 1 2.642 2.883 15.125 15.125 0 0 1 1.328 3.87c.281 1.447.419 2.918.41 4.392 0 1.34-.011 2.457-.035 3.35a39.834 39.834 0 0 1-.238 3.22 19.059 19.059 0 0 1-.562 3.115c-.268.9-.616 1.776-1.04 2.616a6.567 6.567 0 0 1-1.654 2.177 8.23 8.23 0 0 1-2.421 1.34 9.55 9.55 0 0 1-3.324.537 6.136 6.136 0 0 1-3.496-1.04 7.75 7.75 0 0 1-2.436-2.563 15.691 15.691 0 0 1-1.467-3.502 22.933 22.933 0 0 1-.785-3.671 27.322 27.322 0 0 1-.204-3.235c-.001-1.277.08-2.552.241-3.82Zm-4.228 17.33c2.476 2.211 6.409 3.317 11.797 3.317a24.958 24.958 0 0 0 5.915-.67 17.63 17.63 0 0 0 5.145-2.162 15.111 15.111 0 0 0 4.109-3.738 17.298 17.298 0 0 0 2.694-5.564 26.075 26.075 0 0 0 .989-7.44 13.72 13.72 0 0 0-1.124-5.9 13.973 13.973 0 0 0-3.547-4.893c-2.843-2.5-6.968-3.753-12.377-3.753-5.41 0-9.865 1.643-13.366 4.928a16.46 16.46 0 0 0-3.98 5.667 16.185 16.185 0 0 0-1.27 6.767c0 5.989 1.669 10.468 5.011 13.44h.004Zm53.358-26.546c1.818 0 3.114.357 3.887 1.073a5.818 5.818 0 0 1 1.312 3.018c.285 1.307.462 2.636.528 3.971.046 1.174.069 2.688.069 4.542a599.678 599.678 0 0 1-.05 7.223c-.012.725-.007 1.58.015 2.565.007.733.052 1.466.137 2.194.069.482.159 1.007.273 1.575.079.477.241.935.477 1.357.205.336.456.642.748.907a5.341 5.341 0 0 0 3.749 1.34c1.706 0 3.66-.85 5.865-2.548a63.78 63.78 0 0 0 5.251-4.794l-.784-1.141h-.819a8.405 8.405 0 0 1-4.67 1.777 2.718 2.718 0 0 1-1.063-.153 2.678 2.678 0 0 1-.915-.551 2.603 2.603 0 0 1-.598-.652 4.723 4.723 0 0 1-.357-1.375c-.13-.961-.187-1.93-.171-2.9 0-.736.041-1.927.119-3.568.064-1.167.104-2.335.121-3.503v-2.012c.022-2.167.016-3.669-.017-4.509a31.4 31.4 0 0 0-.393-3.418 6.146 6.146 0 0 0-1.057-2.983 7.103 7.103 0 0 0-2.114-1.54 7.541 7.541 0 0 0-3.478-.722c-4 0-8.638 1.61-13.91 4.827l-.819-.302a6.272 6.272 0 0 0-1.176-3.435c-.671-.862-1.824-1.29-3.46-1.29a9.485 9.485 0 0 0-2.882.485c-1.08.355-2.11.84-3.07 1.44a46.618 46.618 0 0 0-2.694 1.778 80.803 80.803 0 0 0-2.642 1.993l1.261 1.643c.232-.147.465-.292.7-.435.397-.246.743-.447 1.039-.604.295-.156.648-.34 1.057-.553a7.314 7.314 0 0 1 1.143-.49c.301-.1.617-.158.936-.167a2.16 2.16 0 0 1 1.126.285c.346.225.607.555.747.94.171.405.318.817.442 1.238.14.567.22 1.145.24 1.728.046.76.073 1.374.082 1.842.011.468.016 1.172.017 2.112v.57c0 2.19-.17 8.893-.511 20.11l.853.469 7.671-2.179c-.227-.96-.398-3.987-.512-9.081a642.254 642.254 0 0 1-.165-14.95c3.955-2.1 6.773-3.15 8.455-3.15l.007.003Zm33.072 11.427a.92.92 0 0 1-.204.036c-.34 0-.511-.123-.512-.368.001-1.113.087-2.221.257-3.32.192-1.197.511-2.371.953-3.502a13.292 13.292 0 0 1 1.74-3.218 8.15 8.15 0 0 1 2.926-2.377 8.316 8.316 0 0 1 3.706-.824 5.44 5.44 0 0 1 2.681.542 5.314 5.314 0 0 1 2.057 1.771 9.066 9.066 0 0 1 1.603 5.295 1.68 1.68 0 0 1-.321.962 1.736 1.736 0 0 1-.821.613 56.65 56.65 0 0 1-5.71 1.912 387.628 387.628 0 0 0-8.149 2.448 1.01 1.01 0 0 0-.204.031h-.002Zm20.253 10.458c-4.093 2.437-7.628 3.654-10.604 3.653a9.842 9.842 0 0 1-5.66-1.641 9.998 9.998 0 0 1-3.562-4.105A12.468 12.468 0 0 1 244 35.007c14.866-4.534 22.367-6.801 22.504-6.801a2.531 2.531 0 0 0 1.487-.91 2.438 2.438 0 0 0 .524-1.639 9.417 9.417 0 0 0-1.142-4.725 8.242 8.242 0 0 0-3.086-3.134 15.131 15.131 0 0 0-4.21-1.643 21.913 21.913 0 0 0-4.897-.52 20.987 20.987 0 0 0-8.587 1.694 16.437 16.437 0 0 0-6.153 4.525 20.417 20.417 0 0 0-3.563 6.368 22.336 22.336 0 0 0-1.228 7.39c0 5.162 1.42 9.027 4.262 11.598 2.568 2.346 6.193 3.518 10.876 3.518a17.835 17.835 0 0 0 7.723-1.843 60.03 60.03 0 0 0 8.268-4.894l-.746-1.305-1.063-.27Z" fill="#9C9C9C"/></g><defs><clipPath id="a"><path fill="#fff" d="M0 0h269v52H0z"/></clipPath></defs></svg>