<svg width="214" height="51" fill="none" xmlns="http://www.w3.org/2000/svg"><path d="M70.308 50.32V0h-12.98L30.192 38.828l-4.58-5.644c8.19-1.224 12.77-8.296 12.77-15.844 0-7.208-4.025-13.26-9.439-15.572C26.235.612 22.21 0 16.866 0H0v50.32h12.562V34.068h.14L24.57 50.32h13.256l4.511-7.276H57.19v7.276h13.118ZM12.562 25.296V11.288h4.998c4.927 0 8.259 2.448 8.259 6.8 0 4.624-3.123 7.208-8.329 7.208h-4.928Zm44.628 7.548h-8.606l8.467-13.94h.14v13.94ZM122.95 50.32V0h-12.563l.556 31.824L90.952 0H79.64v50.32h12.562l-.347-30.736 19.711 30.736h11.383Zm37.881 0V39.032h-15.964v-8.636h15.478V19.108h-15.478v-7.82h15.964V0h-28.526v50.32h28.526Zm52.143 0-18.114-25.228L211.863 0h-13.742l-14.506 22.644h-.139V0h-13.118v50.32h13.118V28.56h.139l14.02 21.76h15.338Z" fill="#9C9C9C"/></svg>