<svg width="142" height="35" fill="none" xmlns="http://www.w3.org/2000/svg"><g clip-path="url(#a)" fill="#9C9C9C"><path d="M38.61 31.439c-2.357 0-4.164-.406-5.421-1.218-1.236-.834-1.852-2.052-1.852-3.652 0-.812.27-1.478.808-1.996.561-.54 1.28-.812 2.155-.812.516.023.909.158 1.179.406.27.226.404.44.404.643 0 .022-.113.101-.337.236a1.97 1.97 0 0 0-.606.609c-.18.271-.27.643-.27 1.116 0 1.06.315 1.883.944 2.47.65.563 1.65.845 2.997.845.92 0 1.728-.18 2.425-.541.696-.36 1.223-.834 1.582-1.42.382-.61.573-1.24.573-1.895 0-.811-.236-1.51-.708-2.096a5.55 5.55 0 0 0-1.683-1.455c-.674-.405-1.594-.868-2.762-1.387-1.347-.608-2.435-1.16-3.266-1.657a7.044 7.044 0 0 1-2.123-1.961c-.583-.835-.874-1.86-.874-3.078 0-1.962.661-3.427 1.986-4.397 1.348-.97 3.11-1.454 5.288-1.454 1.706 0 3.188.36 4.445 1.082 1.28.722 1.92 1.782 1.92 3.179 0 .812-.281 1.488-.842 2.03-.54.518-1.246.778-2.122.778-.517-.023-.91-.148-1.178-.373-.27-.247-.405-.473-.405-.676 0-.023.146-.101.438-.237.315-.135.584-.338.808-.609.247-.27.37-.643.37-1.115 0-.835-.325-1.489-.976-1.963-.629-.473-1.437-.71-2.425-.71-1.369 0-2.413.328-3.131.981-.697.632-1.045 1.42-1.045 2.368 0 .789.213 1.454.64 1.995.426.519 1.111 1.037 2.054 1.556a43.32 43.32 0 0 0 2.492 1.218c1.437.653 2.571 1.251 3.402 1.792a6.85 6.85 0 0 1 2.121 2.131c.584.879.877 1.973.877 3.28 0 1.128-.36 2.154-1.078 3.079-.696.901-1.651 1.611-2.863 2.13-1.19.518-2.504.778-3.94.778Zm17.05-.27c-1.527 0-2.74-.463-3.638-1.388-.898-.924-1.346-2.142-1.346-3.652V19.87c0-.585-.023-1.014-.068-1.285-.022-.27-.157-.507-.405-.71-.246-.202-.661-.304-1.245-.304-.27 0-.471-.033-.606-.101-.135-.09-.202-.282-.202-.575 0-.136.045-.26.135-.372a.538.538 0 0 1 .404-.237c1.414-.203 2.627-.496 3.637-.88a3.64 3.64 0 0 1 .774-.203h.101c.36 0 .54.215.54.643v10.248c0 1.037.325 1.838.976 2.401a3.427 3.427 0 0 0 2.256.812c1.055 0 1.953-.26 2.694-.778.741-.519 1.235-1.037 1.482-1.556v-7.102c0-.586-.022-1.014-.067-1.286-.023-.27-.158-.507-.405-.71-.247-.202-.662-.304-1.246-.304-.27 0-.471-.033-.605-.101-.135-.09-.203-.282-.203-.575 0-.136.045-.26.135-.372a.538.538 0 0 1 .404-.237c1.415-.203 2.627-.496 3.638-.88.313-.112.572-.18.773-.203h.102c.36 0 .539.215.539.643V27.55c0 1.33.887 1.996 2.66 1.996.381 0 .572.214.572.643 0 .315-.19.507-.572.574l-5.422.372c-.157 0-.247-.056-.27-.169a2.59 2.59 0 0 1-.033-.507v-1.895h-.067c-.516.487-1.043.96-1.583 1.42-.404.316-.932.587-1.584.812-.628.248-1.38.372-2.255.372Zm13.629-.305a.509.509 0 0 1-.405-.203.837.837 0 0 1-.135-.473c.023-.293.09-.463.203-.507.112-.068.314-.102.606-.102.584 0 .999-.102 1.246-.305s.382-.44.404-.71c.046-.271.067-.699.067-1.285v-7.745c0-.586-.022-1.015-.067-1.286-.022-.27-.157-.507-.404-.71-.247-.202-.662-.304-1.246-.304-.27 0-.472-.034-.606-.102-.135-.09-.202-.281-.202-.575a.58.58 0 0 1 .135-.371.538.538 0 0 1 .404-.237c1.459-.226 2.66-.519 3.603-.88.382-.113.64-.18.775-.203h.1c.36 0 .54.215.54.643v2.097h.1c.786-.79 1.584-1.41 2.392-1.86.808-.474 1.537-.71 2.188-.71.742 0 1.325.281 1.752.845a2.88 2.88 0 0 1 .673 1.894c0 .631-.19 1.195-.572 1.69-.382.497-.91.745-1.583.745a1.723 1.723 0 0 1-.842-.203c-.224-.136-.348-.248-.37-.338.022-.045.135-.18.336-.406.203-.248.303-.53.303-.845 0-.407-.112-.733-.336-.98-.203-.25-.483-.373-.842-.373-.382 0-.864.191-1.448.575a9.434 9.434 0 0 0-1.718 1.386v8.253c0 .586.022 1.014.067 1.285.046.27.191.507.438.71.247.203.663.305 1.246.305h.203c.18 0 .314.034.404.101.09.068.145.237.168.507 0 .18-.045.339-.135.474a.452.452 0 0 1-.404.203 68.693 68.693 0 0 0-3.536-.102c-1.01 0-2.177.034-3.502.102Zm52.303.305c-1.526 0-2.884-.362-4.074-1.083a8.051 8.051 0 0 1-2.796-2.909 8.068 8.068 0 0 1-.976-3.856c0-1.69.393-3.156 1.179-4.396.786-1.263 1.785-2.221 2.997-2.875 1.212-.676 2.436-1.014 3.67-1.014 1.528 0 2.886.371 4.076 1.115a7.46 7.46 0 0 1 2.761 2.909 7.65 7.65 0 0 1 1.01 3.821c0 1.692-.404 3.169-1.212 4.432-.786 1.24-1.785 2.198-2.997 2.874-1.212.654-2.425.982-3.638.982Zm0-1.252c1.528 0 2.639-.654 3.335-1.962.718-1.307 1.077-2.999 1.077-5.073 0-1.94-.37-3.517-1.111-4.736-.718-1.239-1.819-1.859-3.301-1.859-1.548 0-2.671.643-3.367 1.928-.696 1.285-1.044 2.964-1.044 5.04 0 1.938.359 3.54 1.078 4.801.719 1.241 1.83 1.861 3.333 1.861Zm16.333 1.42c-1.1 0-2.043-.406-2.829-1.217-.785-.812-1.179-1.973-1.179-3.484v-9.943l-1.953.068a.41.41 0 0 1-.336-.17.768.768 0 0 1-.135-.44c0-.202.034-.371.101-.507a.499.499 0 0 1 .37-.27c.786-.158 1.392-.406 1.819-.744.449-.361.775-.744.976-1.15.203-.429.45-1.071.742-1.929.112-.292.359-.439.74-.439.157 0 .315.045.472.136.157.067.235.18.235.338l-.235 3.855 3.94-.237h.068c.291 0 .437.215.437.643 0 .248-.045.485-.135.71-.067.204-.157.305-.269.305l-3.772-.101v10.281c0 .744.146 1.364.438 1.86.314.497.819.744 1.516.744.695 0 1.313-.124 1.851-.372.293-.113.472-.169.539-.169.158 0 .281.068.371.203.09.113.179.271.27.473a.394.394 0 0 1 .033.17c0 .09-.067.191-.202.304-.651.429-1.268.71-1.852.846-.562.157-1.235.236-2.021.236Zm-54.431-.676c.09.135.224.203.404.203a66.746 66.746 0 0 1 3.502-.102c1.505 0 2.908.034 4.21.102a.421.421 0 0 0 .37-.203.84.84 0 0 0 .135-.474c-.022-.27-.078-.44-.169-.507-.067-.067-.201-.101-.404-.101h-.202c-.74 0-1.268-.057-1.583-.17a1.011 1.011 0 0 1-.64-.608c-.111-.316-.168-.823-.168-1.522V16.76h3.57a.508.508 0 0 0 .404-.203.719.719 0 0 0 .169-.473c-.023-.27-.09-.44-.203-.507-.09-.09-.235-.136-.437-.136H88.95v-2.029c0-1.082.044-2.029.134-2.841a5.497 5.497 0 0 1 .774-2.3c.427-.699 1.09-1.048 1.988-1.048.102 0 .203.006.3.018a5.776 5.776 0 0 1 .073-1.132 5.646 5.646 0 0 0-.138-.002c-1.976.045-3.514.8-4.613 2.266-1.078 1.443-1.617 3.326-1.617 5.648v1.42h-2.02c-.292 0-.495.034-.607.102-.112.045-.18.226-.202.54 0 .182.045.34.135.474a.543.543 0 0 0 .438.204h2.256v10.519c0 .609-.023 1.048-.067 1.319-.022.248-.157.473-.404.676-.248.203-.663.305-1.246.305-.292 0-.495.034-.607.101-.09.045-.145.214-.168.507 0 .18.045.339.135.474Z"/><path fill-rule="evenodd" clip-rule="evenodd" d="M101.496 7.046a3.763 3.763 0 0 1-1.097 2.658 3.742 3.742 0 0 1-2.645 1.1 3.727 3.727 0 0 1-2.644-1.1 3.773 3.773 0 0 1 0-5.317 3.737 3.737 0 0 1 2.644-1.1 3.719 3.719 0 0 1 2.645 1.1c.348.35.623.764.811 1.22.189.456.286.945.286 1.44Zm-3.742 1.879a1.859 1.859 0 0 0 1.322-.55 1.881 1.881 0 0 0 .407-2.048 1.882 1.882 0 0 0-1.013-1.018 1.864 1.864 0 0 0-2.037.407 1.887 1.887 0 0 0 0 2.659c.35.352.825.55 1.321.55Zm-1.64 3.513V30.56c0 .202.057.36.17.473.111.135.268.203.47.203.202 0 .37-.09.505-.27.135-.158.259-.395.371-.711.112-.316.213-.564.303-.744h.168c1.46 1.105 3.188 1.657 5.186 1.657 1.348 0 2.616-.361 3.806-1.082a7.892 7.892 0 0 0 2.829-2.943c.718-1.262 1.077-2.649 1.077-4.16 0-1.533-.314-2.897-.943-4.092-.605-1.218-1.447-2.165-2.525-2.841-1.078-.677-2.279-1.014-3.603-1.014-.809 0-1.628.168-2.459.507-.808.315-1.538.8-2.189 1.454h-.1V12.5a5.634 5.634 0 0 1-3.066-.062Zm10.171 15.72c-.831 1.24-1.931 1.86-3.3 1.86-.719 0-1.358-.157-1.92-.473a4.598 4.598 0 0 1-1.314-1.117c-.314-.45-.504-.857-.572-1.217v-8.928c.965-1.038 2.155-1.557 3.57-1.557 1.594 0 2.795.632 3.603 1.895.808 1.24 1.212 2.739 1.212 4.497 0 2.098-.426 3.778-1.279 5.04ZM9.017.262a1.4 1.4 0 0 1 1.632 0c6.077 4.36 8.832 9.586 9.006 17.086.08 3.58-.263 6.859-1.307 9.691-1.072 2.834-2.977 5.452-5.782 7.664a1.402 1.402 0 0 1-1.25.243c-.858-.248-1.005-1.271-1.483-1.908-.479.637-.624 1.659-1.484 1.907a1.398 1.398 0 0 1-1.249-.243c-2.804-2.21-4.71-4.829-5.781-7.663C.275 24.207-.07 20.93.01 17.348.185 9.848 2.94 4.62 9.017.262Zm3.143 31.21c1.755-1.62 2.813-3.389 3.56-5.422.94-2.486 1.211-5.233 1.13-8.637-.135-5.847-1.498-9.652-5.626-13.185v10.334c1.614.417 2.338 2.007 2.338 3.757 0 1.752-.724 3.342-2.338 3.759v8.455s.75.695.935.94Zm-4.678 0c-1.755-1.62-2.788-3.389-3.536-5.422-.94-2.486-1.211-5.233-1.129-8.637.135-5.835 1.49-9.657 5.6-13.185v10.334c-1.613.417-2.338 2.007-2.338 3.757 0 1.752.724 3.342 2.339 3.759v8.455s-.757.703-.936.94Zm2.339-15.031c-.496 0-.971.197-1.322.55-.351.351-.549.83-.55 1.328 0 1.039.839 1.88 1.872 1.88.495 0 .971-.198 1.322-.55.35-.352.548-.83.549-1.33a1.875 1.875 0 0 0-1.871-1.878Z"/></g><defs><clipPath id="a"><path fill="#fff" d="M0 0h142v35H0z"/></clipPath></defs></svg>