<svg width="194" height="35" fill="none" xmlns="http://www.w3.org/2000/svg"><path d="M21.423 33.924a6.7 6.7 0 0 1-3.345-.791 6.894 6.894 0 0 1-2.548-2.358c-2.024 1.934-4.647 3.051-7.394 3.15-4.936 0-7.611-3.567-6.708-8.679.687-3.843 3.76-7.695 4.62-10.788-1.663-1.037-4.132-1.76-5.289.36L0 14.346c.606-2.325 2.07-3.87 4.185-3.87 2.115 0 3.679 1.286 5.695.101h1.609c-.859 4.63-3.028 8.334-4.185 14.818-.705 3.973.605 5.779 2.82 5.779a6.644 6.644 0 0 0 4.23-2.326 19.187 19.187 0 0 1-1.31-7.121c0-5.631 2.521-11.567 6.752-11.567 2.17 0 3.778 1.546 3.778 5.214 0 3.667-2.169 9.344-4.935 12.91.15.848.584 1.617 1.227 2.174a3.567 3.567 0 0 0 2.299.873c4.03 0 6.85-6.197 6.85-11.929 0-5.731-2.421-5.473-2.213-7.408.018-.242.083-.478.19-.694.106-.216.252-.407.43-.564.36-.32.83-.479 1.305-.446 1.257 0 2.91 1.63 2.91 8.242 0 8.427-4.375 15.392-10.215 15.392h.001Zm-.912-20.856c-1.258 0-2.469 4.751-2.622 9.66-.06 1.049-.04 2.102.054 3.148a25.132 25.132 0 0 0 3.38-10.585c-.009-1.668-.307-2.224-.813-2.224v.001Zm19.406 20.643a3.536 3.536 0 0 1-1.56-.186 3.602 3.602 0 0 1-1.337-.846 3.714 3.714 0 0 1-.859-1.348 3.786 3.786 0 0 1-.221-1.593c0-2.27 2.875-13.577 2.875-15.438 0-.88-.2-1.398-.958-1.398a4.335 4.335 0 0 0-2.27 1.138v-1.602a7.312 7.312 0 0 1 4.79-2.009 3.58 3.58 0 0 1 1.568.206c.5.185.956.479 1.335.863.378.383.67.846.857 1.358.185.511.26 1.058.218 1.601 0 2.269-2.874 13.53-2.874 15.383 0 .88.198 1.399.959 1.399a4.67 4.67 0 0 0 2.268-1.084V31.7a7.214 7.214 0 0 1-4.79 2.01Zm3.525-32.683c.394-.012.786.062 1.15.22a2.766 2.766 0 0 1 1.53 1.733c.116.387.149.795.096 1.196a3.586 3.586 0 0 1-1.11 2.222c-.623.58-1.425.91-2.262.927a2.655 2.655 0 0 1-1.148-.22 2.765 2.765 0 0 1-1.53-1.733 2.841 2.841 0 0 1-.097-1.196 3.587 3.587 0 0 1 1.11-2.221 3.427 3.427 0 0 1 2.261-.927Zm11.19 27.83c-.252 1.398-.098 2.371.86 2.371a4.473 4.473 0 0 0 2.269-1.084l.09 1.556a7.312 7.312 0 0 1-4.791 2.01c-3.128 0-4.338-2.324-3.877-5.214l3.073-17.92c1.022-5.983.668-6.77-2.46-6.77l.2-1.444 9.427-1.279-4.79 27.774Zm26.514-.047c-.254 1.4-.155 2.428.858 2.428a4.737 4.737 0 0 0 2.27-1.14v1.602a7.143 7.143 0 0 1-4.791 2.01 3.558 3.558 0 0 1-2.506-.788 3.723 3.723 0 0 1-1.328-2.314 8.285 8.285 0 0 1-2.847 2.44 8.076 8.076 0 0 1-3.606.912c-5.994 0-8.516-5.417-7.358-11.928 1.157-6.51 6.552-11.826 12.654-11.826a8.322 8.322 0 0 1 4.15 1.008l.153-.823c1.193-6.372.642-6.585-2.486-6.585l.154-1.444 9.472-1.279-4.79 27.728Zm-6.5-16.27c-3.48 0-5.794 4.231-6.707 9.445-.958 5.474-.353 9.262 2.92 9.262 2.214 0 4.736-2.78 5.495-7.02l1.863-10.743a6.274 6.274 0 0 0-3.572-.945ZM97.072 33.97c-7.005 0-8.922-5.168-8.063-10.123l2.287-13.27c1.058-5.99.705-6.817-2.422-6.817l.198-1.444 9.455-1.232-1.916 11.252a8.34 8.34 0 0 1 5.288-2.12c6.102 0 8.967 5.316 7.864 11.826-1.102 6.51-6.715 11.929-12.69 11.929v-.001Zm3.273-21.3a4.754 4.754 0 0 0-2.816 1.003 4.947 4.947 0 0 0-1.704 2.506l-1.41 8.336c-.86 4.954.859 6.973 3.028 6.973 3.173 0 5.143-3.611 6.201-9.548.94-5.316.082-9.242-3.308-9.242l.009-.028Zm18.973 12.373c0 3.973 1.862 6.094 5.423 6.094 1.808 0 4.438-1.287 6.102-2.992l.705 1.648a13.045 13.045 0 0 1-4.224 3.056 12.76 12.76 0 0 1-5.051 1.13c-5.287 0-8.867-4.028-8.867-9.502 0-8.103 6.553-14.252 12.854-14.252 3.833 0 5.993 2.167 5.993 4.695-.045 3.926-3.679 8.336-12.935 10.123Zm6.499-12.447c-2.874 0-5.64 4.287-6.4 10.428 5.794-1.445 8.262-5.474 8.316-8.057-.009-1.445-.669-2.371-1.925-2.371h.009Zm27.001 21.115a3.56 3.56 0 0 1-2.506-.788 3.72 3.72 0 0 1-1.327-2.314 8.01 8.01 0 0 1-2.777 2.442 7.792 7.792 0 0 1-3.551.91c-5.893 0-8.415-5.417-7.231-11.928 1.184-6.51 6.49-11.818 12.61-11.818a9.33 9.33 0 0 1 3.778.78h5.749L154.48 28.81c-.253 1.4-.153 2.428.86 2.428a4.735 4.735 0 0 0 2.268-1.14v1.602a7.142 7.142 0 0 1-4.79 2.01Zm-4.638-21.17c-3.381 0-5.748 4.231-6.653 9.445-.958 5.474-.298 9.262 2.712 9.262 2.314 0 4.791-2.89 5.496-7.02l1.862-10.743a5.737 5.737 0 0 0-3.408-.945h-.009Zm27.019 3.768c-1.365 0-1.718-1.083-2.115-2.223a2.546 2.546 0 0 0-.92-1.437 2.435 2.435 0 0 0-1.602-.507 2.952 2.952 0 0 0-2.062.694 3.088 3.088 0 0 0-1.066 1.936c-.154 1.4.858 2.584 2.774 4.288l2.568 2.167a6.735 6.735 0 0 1 2.142 2.882 6.908 6.908 0 0 1 .38 3.6c-.651 3.871-3.778 6.251-7.964 6.251-5.044 0-8.262-3.047-7.91-5.112.083-.542.35-1.04.756-1.398.405-.36.923-.56 1.46-.565 1.31 0 1.807 1.029 2.214 2.37a3.693 3.693 0 0 0 1.428 1.883 3.55 3.55 0 0 0 2.251.6 3.11 3.11 0 0 0 2.162-.74 3.252 3.252 0 0 0 1.11-2.038c.199-1.852-.904-2.991-2.973-4.909l-2.522-2.269a6.46 6.46 0 0 1-2.008-2.683 6.637 6.637 0 0 1-.415-3.354c.452-2.482 2.712-5.557 7.909-5.557 4.032 0 6.554 2.324 6.328 4.186a2.058 2.058 0 0 1-.594 1.353 1.963 1.963 0 0 1-1.331.582Zm18.449-3.24h-4.891l-2.368 13.723c-.506 2.844-.099 4.132 1.41 4.132.805 0 2.07-.464 3.878-2.371l.099 2.01a8.827 8.827 0 0 1-2.984 2.346 8.629 8.629 0 0 1-3.668.857c-3.426 0-5.143-2.481-4.33-7.075l2.368-13.623h-3.824l.299-2.12h3.859l1.013-6.14h5.641l-1.058 6.139h4.89l-.334 2.12v.001Z" fill="#9C9C9C"/></svg>