<svg width="34" height="34" fill="none" xmlns="http://www.w3.org/2000/svg"><path d="M34 17.104c0-9.388-7.612-17-17-17s-17 7.612-17 17c0 8.486 6.216 15.518 14.344 16.793V22.018h-4.317v-4.916h4.317V13.36c0-4.26 2.538-6.615 6.421-6.615 1.86 0 3.806.333 3.806.333v4.183h-2.145c-2.112 0-2.771 1.31-2.771 2.655v3.188h4.714l-.753 4.916h-3.961v11.878C27.784 32.622 34 25.588 34 17.104Z" fill="url(#a)"/><defs><linearGradient id="a" x1="17" y1=".104" x2="17" y2="33.898" gradientUnits="userSpaceOnUse"><stop stop-color="#FFBF00"/><stop offset="1" stop-color="#F2A60C"/></linearGradient></defs></svg>