<svg width="34" height="34" fill="none" xmlns="http://www.w3.org/2000/svg"><path d="M17 0c-4.618 0-5.195.021-7.008.102-1.81.085-3.043.37-4.127.79a8.325 8.325 0 0 0-3.012 1.961 8.295 8.295 0 0 0-1.96 3.012C.472 6.949.186 8.181.102 9.992.017 11.805 0 12.382 0 17s.021 5.195.102 7.008c.085 1.81.37 3.043.79 4.127a8.337 8.337 0 0 0 1.961 3.012 8.313 8.313 0 0 0 3.012 1.96c1.085.42 2.318.707 4.127.791 1.813.085 2.39.102 7.008.102s5.195-.021 7.008-.102c1.81-.085 3.043-.371 4.127-.79a8.356 8.356 0 0 0 3.012-1.961 8.302 8.302 0 0 0 1.96-3.012c.42-1.084.707-2.318.791-4.127.085-1.813.102-2.39.102-7.008s-.021-5.195-.102-7.008c-.085-1.81-.371-3.045-.79-4.127a8.344 8.344 0 0 0-1.961-3.012 8.284 8.284 0 0 0-3.012-1.96C27.051.472 25.817.186 24.008.102 22.195.017 21.618 0 17 0Zm0 3.06c4.538 0 5.079.023 6.87.1 1.658.079 2.558.353 3.156.588a5.28 5.28 0 0 1 1.958 1.27c.593.595.961 1.16 1.269 1.956.232.598.51 1.498.585 3.155.08 1.794.1 2.332.1 6.871 0 4.539-.022 5.079-.106 6.87-.086 1.658-.362 2.558-.596 3.156-.317.796-.679 1.36-1.274 1.958a5.306 5.306 0 0 1-1.955 1.269c-.595.232-1.508.51-3.166.585-1.805.08-2.336.1-6.884.1s-5.08-.022-6.883-.106c-1.659-.086-2.573-.362-3.168-.596-.806-.317-1.36-.679-1.953-1.274-.597-.593-.978-1.167-1.275-1.955-.234-.595-.509-1.508-.595-3.166-.064-1.785-.087-2.336-.087-6.862 0-4.528.023-5.08.087-6.887.086-1.657.36-2.57.595-3.165.297-.807.678-1.36 1.275-1.956.593-.593 1.147-.976 1.953-1.272.595-.235 1.49-.511 3.147-.596 1.806-.064 2.337-.086 6.883-.086L17 3.06Zm0 5.21A8.729 8.729 0 0 0 8.27 17c0 4.824 3.91 8.73 8.73 8.73 4.824 0 8.73-3.91 8.73-8.73 0-4.824-3.91-8.73-8.73-8.73Zm0 14.397A5.665 5.665 0 0 1 11.333 17 5.665 5.665 0 0 1 17 11.333 5.665 5.665 0 0 1 22.667 17 5.665 5.665 0 0 1 17 22.667Zm11.115-14.74c0 1.126-.915 2.04-2.04 2.04a2.041 2.041 0 0 1-2.04-2.04 2.041 2.041 0 0 1 4.08 0Z" fill="url(#a)"/><defs><linearGradient id="a" x1="17" y1="0" x2="17" y2="34" gradientUnits="userSpaceOnUse"><stop stop-color="#FFBF00"/><stop offset="1" stop-color="#F2A60C"/></linearGradient></defs></svg>